<svg width="25" height="24" viewBox="0 0 25 24" fill="none" xmlns="http://www.w3.org/2000/svg">
<path fill-rule="evenodd" clip-rule="evenodd" d="M16.5952 2.62166C16.8003 2.10887 16.5509 1.5269 16.0381 1.32179C15.5253 1.11668 14.9433 1.36609 14.7382 1.87888L13.7382 4.37888C13.5331 4.89166 13.7825 5.47363 14.2953 5.67874C14.8081 5.88386 15.3901 5.63444 15.5952 5.12166L16.5952 2.62166ZM11.0858 1.85635C10.8683 1.34872 10.2805 1.11357 9.77283 1.33112C9.2652 1.54867 9.03004 2.13655 9.2476 2.64418L11.6786 8.31674C11.1887 8.38347 10.7145 8.49914 10.2609 8.65866L7.07293 1.82738C6.83937 1.32691 6.24433 1.11053 5.74386 1.34408C5.24339 1.57764 5.02701 2.17268 5.26056 2.67315L8.48289 9.57814C6.62764 10.8912 5.41651 13.0542 5.41651 15.5C5.41651 19.5041 8.66244 22.75 12.6665 22.75C16.6705 22.75 19.9165 19.5041 19.9165 15.5C19.9165 13.0543 18.7055 10.8915 16.8504 9.57839L20.0729 2.67315C20.3064 2.17268 20.0901 1.57764 19.5896 1.34408C19.0891 1.11053 18.4941 1.32691 18.2605 1.82738L15.0725 8.6588C14.6852 8.52257 14.2828 8.41831 13.8684 8.34918L11.0858 1.85635ZM13.0609 12.362C13.282 12.4987 13.4166 12.7401 13.4166 13V17.25H13.6666C14.0808 17.25 14.4166 17.5858 14.4166 18C14.4166 18.4142 14.0808 18.75 13.6666 18.75H11.6666C11.2524 18.75 10.9166 18.4142 10.9166 18C10.9166 17.5858 11.2524 17.25 11.6666 17.25H11.9166V14.2072C11.5648 14.3321 11.167 14.1778 10.9958 13.8354C10.8106 13.4649 10.9607 13.0144 11.3312 12.8292L12.3312 12.3292C12.5637 12.2129 12.8398 12.2254 13.0609 12.362Z" fill="#00B140"/>
</svg>
