<svg width="16" height="22" viewBox="0 0 16 22" fill="none" xmlns="http://www.w3.org/2000/svg">
<path fill-rule="evenodd" clip-rule="evenodd" d="M12.2652 1.62165C12.4703 1.10887 12.2209 0.526902 11.7081 0.321792C11.1953 0.116672 10.6133 0.366092 10.4082 0.878872L9.40817 3.37887C9.20307 3.89165 9.45247 4.47363 9.96527 4.67874C10.4781 4.88385 11.0601 4.63444 11.2652 4.12165L12.2652 1.62165ZM6.75577 0.856352C6.53827 0.348722 5.95038 0.113562 5.44275 0.331112C4.93512 0.548672 4.69996 1.13655 4.91752 1.64418L7.34867 7.31692C6.85877 7.38365 6.38447 7.49931 5.93086 7.65882L2.74285 0.827382C2.50929 0.326912 1.91425 0.110532 1.41378 0.344082C0.913309 0.577632 0.696929 1.17268 0.930479 1.67315L4.15288 8.57828C2.29759 9.89134 1.08643 12.0543 1.08643 14.5002C1.08643 18.5042 4.33236 21.7502 8.33647 21.7502C12.3405 21.7502 15.5865 18.5042 15.5865 14.5002C15.5865 12.0544 14.3754 9.89164 12.5204 8.57854L15.7429 1.67315C15.9764 1.17268 15.7601 0.577632 15.2596 0.344082C14.7591 0.110532 14.1641 0.326912 13.9305 0.827382L10.7424 7.65897C10.3551 7.52276 9.95277 7.41851 9.53847 7.34939L6.75577 0.856352ZM7.90717 12.9491L7.38607 13.5104C7.10427 13.814 6.62977 13.8316 6.32618 13.5498C6.02261 13.268 6.00498 12.7935 6.28679 12.4899L6.83367 11.9013C7.78037 10.9439 9.34837 11.0582 10.1496 12.1386C10.7725 12.9786 10.725 14.1444 10.0345 14.9302L8.68187 16.2502H9.76787C10.1821 16.2502 10.5179 16.5859 10.5179 17.0002C10.5179 17.4144 10.1821 17.7502 9.76787 17.7502H6.83647C6.53127 17.7502 6.25654 17.5653 6.14164 17.2825C6.02674 16.9998 6.0946 16.6757 6.31326 16.4628L8.92327 13.9216C9.13157 13.6679 9.14227 13.2985 8.94467 13.0321C8.69147 12.6907 8.20607 12.6549 7.90717 12.9491Z" fill="#E3841F"/>
</svg>
