<svg width="16" height="22" viewBox="0 0 16 22" fill="none" xmlns="http://www.w3.org/2000/svg">
<path fill-rule="evenodd" clip-rule="evenodd" d="M11.9351 1.62165C12.1402 1.10887 11.8908 0.526902 11.378 0.321792C10.8652 0.116672 10.2832 0.366092 10.0781 0.878872L9.07809 3.37887C8.87299 3.89165 9.12239 4.47363 9.63519 4.67874C10.148 4.88385 10.73 4.63444 10.9351 4.12165L11.9351 1.62165ZM6.42569 0.856352C6.20819 0.348722 5.6203 0.113562 5.11267 0.331112C4.60504 0.548672 4.36988 1.13655 4.58744 1.64418L7.01859 7.31692C6.52869 7.38365 6.05439 7.49931 5.60078 7.65882L2.41277 0.827382C2.17921 0.326912 1.58417 0.110532 1.0837 0.344082C0.583231 0.577632 0.366851 1.17268 0.600401 1.67315L3.8228 8.57828C1.96751 9.89134 0.756351 12.0543 0.756351 14.5002C0.756351 18.5042 4.00228 21.7502 8.00639 21.7502C12.0104 21.7502 15.2564 18.5042 15.2564 14.5002C15.2564 12.0544 14.0453 9.89164 12.1903 8.57854L15.4128 1.67315C15.6463 1.17268 15.43 0.577632 14.9295 0.344082C14.429 0.110532 13.834 0.326912 13.6004 0.827382L10.4123 7.65897C10.025 7.52276 9.62269 7.41851 9.20839 7.34939L6.42569 0.856352ZM7.53439 12.8726C7.42579 12.9475 7.30399 13.0823 7.17729 13.3356C6.99209 13.706 6.54159 13.8562 6.17109 13.671C5.80062 13.4857 5.65045 13.0352 5.83569 12.6647C6.03559 12.265 6.30299 11.8998 6.68239 11.638C7.07049 11.3702 7.51809 11.2502 8.00649 11.2502C8.51579 11.2502 9.05319 11.4066 9.48059 11.7277C9.92239 12.0596 10.2565 12.5814 10.2565 13.2502C10.2565 13.7231 10.0923 14.1578 9.81789 14.5002C10.0923 14.8426 10.2565 15.2772 10.2565 15.7502C10.2565 16.4189 9.92239 16.9407 9.48059 17.2726C9.05319 17.5937 8.51579 17.7502 8.00649 17.7502C7.51809 17.7502 7.07049 17.6301 6.68239 17.3623C6.30299 17.1005 6.03559 16.7353 5.83569 16.3356C5.65045 15.9651 5.80062 15.5146 6.17109 15.3293C6.54159 15.1441 6.99209 15.2943 7.17729 15.6647C7.30399 15.918 7.42579 16.0528 7.53439 16.1277C7.63439 16.1967 7.77349 16.2502 8.00649 16.2502C8.22679 16.2502 8.43939 16.1787 8.57959 16.0734C8.70539 15.9788 8.75649 15.8756 8.75649 15.7502C8.75649 15.474 8.53269 15.2502 8.25649 15.2502C7.84229 15.2502 7.50649 14.9144 7.50649 14.5002C7.50649 14.0859 7.84229 13.7502 8.25649 13.7502C8.53269 13.7502 8.75649 13.5263 8.75649 13.2502C8.75649 13.1247 8.70539 13.0215 8.57959 12.927C8.43939 12.8216 8.22679 12.7502 8.00649 12.7502C7.77349 12.7502 7.63439 12.8036 7.53439 12.8726Z" fill="#BFBFBF"/>
</svg>
