<svg width="38" height="36" viewBox="0 0 38 36" fill="none" xmlns="http://www.w3.org/2000/svg">
<path d="M10.3885 26.7722C9.67505 26.7722 9.09667 27.3506 9.09667 28.0641C9.09667 28.7776 9.67505 29.3559 10.3885 29.3559V28.0641V26.7722ZM17.2783 29.3559C17.9918 29.3559 18.5702 28.7776 18.5702 28.0641C18.5702 27.3506 17.9918 26.7722 17.2783 26.7722V28.0641V29.3559ZM28.9837 1.41137L28.9869 2.70321C29.014 2.70315 29.0412 2.70222 29.0683 2.70044L28.9837 1.41137ZM8.92413 1.46141L8.85775 2.75155C8.88093 2.75274 8.90414 2.75331 8.92735 2.75325L8.92413 1.46141ZM2.53531 15.4734L3.67146 14.8586L3.67145 14.8585L2.53531 15.4734ZM6.71729 17.7844L6.59939 19.0709C6.62884 19.0736 6.65839 19.0753 6.68796 19.0759L6.71729 17.7844ZM12.0949 12.5462L13.3234 12.1466C13.1269 11.5424 12.5201 11.1708 11.8926 11.2703C11.2651 11.3697 10.803 11.9108 10.803 12.5462H12.0949ZM21.2672 17.4329L20.9218 16.1881L20.9218 16.1881L21.2672 17.4329ZM25.958 12.5462L27.2423 12.4068C27.1743 11.7802 26.6641 11.2941 26.0349 11.2566C25.4057 11.2191 24.8413 11.6411 24.6993 12.2551L25.958 12.5462ZM29.4498 17.4587L29.942 16.2643L29.942 16.2643L29.4498 17.4587ZM35.0142 10.2066L36.0325 9.41165L36.0325 9.41164L35.0142 10.2066ZM32.9584 5.25958L34.2426 5.11911L34.2426 5.11888L32.9584 5.25958ZM32.0867 2.61436L32.9872 1.68809L32.9871 1.688L32.0867 2.61436ZM3.49866 16.0284H2.20682V23.7908H3.49866H4.79051V16.0284H3.49866ZM3.49866 23.7908H2.20682C2.20682 26.1938 2.20408 28.1258 2.40749 29.641C2.61586 31.1931 3.06157 32.4998 4.098 33.5378L5.01216 32.625L5.92632 31.7122C5.44925 31.2344 5.13821 30.5635 4.96821 29.2972C4.79325 27.9939 4.79051 26.2667 4.79051 23.7908H3.49866ZM5.01216 32.625L4.098 33.5378C5.1347 34.576 6.44026 35.0228 7.99102 35.2316C9.50441 35.4354 11.4341 35.4326 13.8334 35.4326V34.1408V32.8489C11.3609 32.8489 9.63671 32.8462 8.3358 32.671C7.07225 32.5009 6.40311 32.1897 5.92632 31.7122L5.01216 32.625ZM13.8334 34.1408V35.4326H24.1682V34.1408V32.8489H13.8334V34.1408ZM24.1682 34.1408V35.4326C26.5675 35.4326 28.4971 35.4354 30.0105 35.2316C31.5613 35.0228 32.8668 34.576 33.9036 33.5378L32.9894 32.625L32.0753 31.7122C31.5985 32.1897 30.9293 32.5009 29.6658 32.671C28.3649 32.8462 26.6406 32.8489 24.1682 32.8489V34.1408ZM32.9894 32.625L33.9036 33.5378C34.94 32.4998 35.3857 31.1931 35.5941 29.641C35.7975 28.1258 35.7948 26.1938 35.7948 23.7908H34.5029H33.2111C33.2111 26.2667 33.2084 27.9939 33.0334 29.2972C32.8634 30.5635 32.5523 31.2344 32.0753 31.7122L32.9894 32.625ZM34.5029 23.7908H35.7948V16.0284H34.5029H33.2111V23.7908H34.5029ZM10.3885 28.0641V29.3559H17.2783V28.0641V26.7722H10.3885V28.0641ZM28.9837 1.41137L28.9804 0.119528L8.92091 0.169565L8.92413 1.46141L8.92735 2.75325L28.9869 2.70321L28.9837 1.41137ZM8.92413 1.46141L8.99051 0.171268C7.10614 0.0743157 5.75871 0.769123 4.91732 1.80645C4.1294 2.77785 3.87071 3.941 3.87071 4.73988H5.16256H6.45441C6.45441 4.41173 6.57953 3.85862 6.92392 3.43403C7.21483 3.07538 7.74819 2.69446 8.85775 2.75155L8.92413 1.46141ZM5.16256 4.73988H3.87071C3.87071 5.16118 3.84594 5.6415 3.63509 6.31674C3.41847 7.01044 2.98984 7.95748 2.12164 9.26423L3.19764 9.97913L4.27365 10.694C5.24041 9.23894 5.79423 8.07034 6.10134 7.08686C6.41421 6.08492 6.45441 5.32654 6.45441 4.73988H5.16256ZM3.19764 9.97913L2.12164 9.26423C1.19877 10.6533 0.598223 11.7906 0.502926 12.938C0.402783 14.1438 0.879943 15.1288 1.39917 16.0883L2.53531 15.4734L3.67145 14.8585C3.15594 13.906 3.04679 13.5248 3.07776 13.1519C3.11357 12.7206 3.36157 12.0668 4.27365 10.694L3.19764 9.97913ZM2.53531 15.4734L1.39915 16.0882C2.01144 17.2197 3.04688 17.9283 3.98103 18.3583C4.92409 18.7925 5.89988 19.0068 6.59939 19.0709L6.71729 17.7844L6.83519 16.498C6.39579 16.4577 5.70997 16.3099 5.06146 16.0114C4.40404 15.7087 3.91794 15.314 3.67146 14.8586L2.53531 15.4734ZM6.71729 17.7844L6.68796 19.0759C8.91753 19.1266 10.6229 18.1732 11.7453 16.8582C12.8368 15.5793 13.3867 13.9519 13.3867 12.5462H12.0949H10.803C10.803 13.3363 10.4729 14.3691 9.78004 15.1809C9.11801 15.9566 8.13459 16.5244 6.74662 16.4929L6.71729 17.7844ZM12.0949 12.5462L10.8664 12.9457C11.894 16.1052 13.9284 17.78 16.0829 18.5175C18.1666 19.2307 20.2842 19.0463 21.6126 18.6777L21.2672 17.4329L20.9218 16.1881C19.9762 16.4504 18.4049 16.5814 16.9196 16.073C15.505 15.5888 14.0903 14.5048 13.3234 12.1466L12.0949 12.5462ZM21.2672 17.4329L21.6126 18.6777C23.0316 18.284 24.2867 17.4056 25.2407 16.3788C26.1919 15.355 26.9256 14.0958 27.2166 12.8372L25.958 12.5462L24.6993 12.2551C24.5298 12.9884 24.0573 13.8566 23.3479 14.6201C22.6413 15.3806 21.7812 15.9496 20.9218 16.1881L21.2672 17.4329ZM25.958 12.5462L24.6737 12.6855C24.8186 14.022 25.1255 15.2403 25.832 16.2831C26.5509 17.3442 27.5915 18.0901 28.9575 18.6531L29.4498 17.4587L29.942 16.2643C28.8998 15.8348 28.3288 15.3622 27.971 14.834C27.6008 14.2875 27.3658 13.5458 27.2423 12.4068L25.958 12.5462ZM29.4498 17.4587L28.9575 18.6531C32.2341 20.0036 34.9409 17.8879 36.0485 16.8514L35.1657 15.9082L34.283 14.9649C33.2378 15.943 31.6544 16.9701 29.942 16.2643L29.4498 17.4587ZM35.1657 15.9082L36.0485 16.8514C37.6301 15.3712 38.3481 12.3781 36.0325 9.41165L35.0142 10.2066L33.9958 11.0015C35.5175 12.9508 34.8541 14.4305 34.283 14.9649L35.1657 15.9082ZM35.0142 10.2066L36.0325 9.41164C34.8643 7.91518 34.3989 6.54765 34.2426 5.11911L32.9584 5.25958L31.6742 5.40004C31.88 7.28159 32.5176 9.10783 33.9959 11.0015L35.0142 10.2066ZM32.9584 5.25958L34.2426 5.11888C34.1936 4.67224 34.1357 4.06748 33.9857 3.49557C33.8311 2.90625 33.5533 2.23844 32.9872 1.68809L32.0867 2.61436L31.1862 3.54062C31.2946 3.64603 31.4001 3.82134 31.4865 4.15094C31.5775 4.49796 31.6181 4.88794 31.6742 5.40028L32.9584 5.25958ZM32.0867 2.61436L32.9871 1.688C31.6954 0.432478 29.9012 0.0565292 28.8991 0.122297L28.9837 1.41137L29.0683 2.70044C29.2253 2.69014 29.5871 2.71847 30.0233 2.86273C30.4487 3.00338 30.8646 3.22801 31.1863 3.54071L32.0867 2.61436Z" fill="#008632"/>
</svg>
