<svg width="100" height="100" viewBox="0 0 100 100" fill="none" xmlns="http://www.w3.org/2000/svg">
<g clip-path="url(#clip0_928_255062)">
<path d="M50.0012 100C77.6139 100 99.9984 77.6142 99.9984 50C99.9984 22.3858 77.6139 0 50.0012 0C22.3884 0 0.00390625 22.3858 0.00390625 50C0.00390625 77.6142 22.3884 100 50.0012 100Z" fill="#F5F5F5"/>
<path d="M49.9971 -0.245117C77.7451 -0.245117 100.239 22.2505 100.239 50C100.239 77.7496 77.7451 100.245 49.9971 100.245C22.2491 100.245 -0.245117 77.7495 -0.245117 50C-0.245115 22.2505 22.2491 -0.24502 49.9971 -0.245117Z" fill="#DEDFE3" stroke="#D5D7DA" stroke-width="0.490053"/>
<mask id="mask0_928_255062" style="mask-type:alpha" maskUnits="userSpaceOnUse" x="0" y="0" width="100" height="100">
<path d="M49.9972 100C77.61 100 99.9945 77.6142 99.9945 50C99.9945 22.3858 77.61 0 49.9972 0C22.3845 0 0 22.3858 0 50C0 77.6142 22.3845 100 49.9972 100Z" fill="#EFEFEF"/>
</mask>
<g mask="url(#mask0_928_255062)">
<path d="M71.6971 70.4763C72.1318 70.7347 72.6682 71.0377 73.2759 71.3806C75.9383 72.8826 79.963 75.1533 82.7203 77.8521C84.4448 79.5401 86.0831 81.7646 86.3811 84.4899C86.6979 87.3878 85.4335 90.1075 82.8973 92.5239C78.5216 96.6926 73.2707 100.034 66.479 100.034H33.5415C26.7498 100.034 21.4989 96.6926 17.1234 92.5239C14.5872 90.1075 13.323 87.3878 13.6397 84.4899C13.9376 81.7646 15.576 79.5401 17.3004 77.8521C20.0576 75.1533 24.0823 72.8826 26.7448 71.3806C27.3523 71.0377 27.889 70.7347 28.3235 70.4763C41.5984 62.5711 58.4223 62.5711 71.6971 70.4763Z" fill="white"/>
<path d="M30.4001 39.3336C30.4001 28.5029 39.1796 19.7229 50.0096 19.7229C60.8398 19.7229 69.6193 28.5029 69.6193 39.3336C69.6193 50.1643 60.8398 58.9443 50.0096 58.9443C39.1796 58.9443 30.4001 50.1643 30.4001 39.3336Z" fill="white"/>
</g>
</g>
<defs>
<clipPath id="clip0_928_255062">
<path d="M0 50C0 22.3858 22.3858 0 50 0C77.6142 0 100 22.3858 100 50C100 77.6142 77.6142 100 50 100C22.3858 100 0 77.6142 0 50Z" fill="white"/>
</clipPath>
</defs>
</svg>
