<svg width="20" height="20" viewBox="0 0 20 20" fill="none" xmlns="http://www.w3.org/2000/svg">
<path fill-rule="evenodd" clip-rule="evenodd" d="M10 1.04169C9.53235 1.04169 9.15135 1.23845 8.80469 1.503C8.47994 1.75076 8.12174 2.10898 7.70268 2.52808L7.6732 2.55755C7.24432 2.98644 6.87043 3.15524 6.29342 3.15524C6.2211 3.15524 6.12985 3.15267 6.02679 3.14977C5.7626 3.14234 5.42083 3.13272 5.12181 3.15858C4.68442 3.1964 4.13779 3.3161 3.7229 3.73447C3.31119 4.14965 3.19441 4.69404 3.15771 5.12868C3.1327 5.42498 3.14231 5.7642 3.14974 6.0265C3.15266 6.12984 3.15525 6.22126 3.15525 6.2934C3.15525 6.87042 2.98645 7.24431 2.55754 7.67322L2.52808 7.70268C2.10898 8.12174 1.75076 8.47994 1.503 8.8046C1.23845 9.15135 1.0417 9.53235 1.04169 10C1.0417 10.4676 1.23846 10.8486 1.503 11.1954C1.75081 11.5202 2.10911 11.8784 2.52831 12.2976L2.55757 12.3269C2.83562 12.6049 2.96678 12.7852 3.04112 12.9554C3.11351 13.1211 3.15525 13.3309 3.15525 13.7066C3.15525 13.7789 3.15269 13.8702 3.14979 13.9733C3.14235 14.2374 3.13274 14.5792 3.1586 14.8783C3.19643 15.3156 3.31613 15.8623 3.73451 16.2772C4.1497 16.6889 4.69408 16.8056 5.12871 16.8423C5.425 16.8674 5.76421 16.8577 6.02651 16.8503C6.12986 16.8474 6.22127 16.8448 6.2934 16.8448C6.66109 16.8448 6.86774 16.8818 7.0304 16.9489C7.19291 17.0159 7.36674 17.136 7.62855 17.3979C7.68443 17.4537 7.75805 17.5326 7.84296 17.6236C8.0346 17.829 8.28395 18.0963 8.51669 18.2997C8.86977 18.6084 9.37635 18.9584 10 18.9584C10.6238 18.9584 11.1303 18.6084 11.4834 18.2997C11.7161 18.0963 11.9653 17.8293 12.1569 17.6239C12.2419 17.5327 12.3156 17.4538 12.3715 17.3978C12.6333 17.136 12.8071 17.0159 12.9696 16.9489C13.1323 16.8818 13.3389 16.8448 13.7066 16.8448C13.7788 16.8448 13.8702 16.8474 13.9735 16.8503C14.2359 16.8577 14.575 16.8674 14.8714 16.8423C15.3059 16.8056 15.8504 16.6889 16.2655 16.2772C16.6839 15.8623 16.8036 15.3156 16.8414 14.8783C16.8673 14.5792 16.8577 14.2374 16.8503 13.9733C16.8474 13.8703 16.8448 13.7789 16.8448 13.7066C16.8448 13.3309 16.8865 13.1211 16.9589 12.9554C17.0333 12.7852 17.1644 12.6049 17.4424 12.3269L17.4718 12.2976C17.8909 11.8784 18.2493 11.5202 18.497 11.1954C18.7616 10.8486 18.9584 10.4676 18.9584 10C18.9584 9.53235 18.7616 9.15135 18.497 8.8046C18.2493 8.47994 17.8911 8.12175 17.472 7.7027L17.4425 7.67322C17.1644 7.39515 17.0333 7.21485 16.9589 7.04464C16.8865 6.87892 16.8448 6.66909 16.8448 6.2934C16.8448 6.22114 16.8474 6.12996 16.8503 6.02699C16.8577 5.7628 16.8673 5.42082 16.8414 5.12181C16.8036 4.68443 16.6839 4.1378 16.2656 3.72291C15.8504 3.31118 15.306 3.1944 14.8714 3.1577C14.575 3.13268 14.2359 3.14229 13.9735 3.14972C13.8702 3.15265 13.7788 3.15524 13.7066 3.15524C13.1294 3.15524 12.7556 2.98636 12.3269 2.55755L12.2974 2.52809C11.8783 2.10898 11.5201 1.75076 11.1954 1.503C10.8487 1.23845 10.4677 1.04169 10 1.04169ZM12.885 8.65594C13.2933 8.44335 13.4518 7.9401 13.2392 7.53191C13.0266 7.12372 12.5234 6.96516 12.1152 7.17776C10.9252 7.79754 9.95435 8.98402 9.31285 9.91952C9.1321 10.1832 8.97135 10.436 8.83319 10.6644C8.73885 10.5846 8.64785 10.5129 8.56385 10.4496C8.38444 10.3145 8.2231 10.208 8.10527 10.1345L7.89921 10.0127L7.89787 10.0119C7.49344 9.79227 6.9875 9.94202 6.76784 10.3465C6.54821 10.7509 6.69815 11.2568 7.10236 11.4765C7.22215 11.5523 7.48165 11.7193 7.56135 11.781C7.83933 11.9904 8.12259 12.2531 8.29442 12.5268C8.45585 12.7838 8.74427 12.9327 9.04727 12.9155C9.35019 12.8984 9.62002 12.7176 9.75135 12.4441C9.79402 12.3583 9.90219 12.146 9.9941 11.9838C10.1567 11.6914 10.393 11.2914 10.6874 10.8621C11.2959 9.97469 12.075 9.07785 12.885 8.65594Z" fill="#1C58F1"/>
</svg>
