<svg width="24" height="24" viewBox="0 0 24 24" fill="none" xmlns="http://www.w3.org/2000/svg">
<g opacity="0.7">
<path d="M3.72659 10.5146C3.72659 10.1004 3.3908 9.7646 2.97659 9.7646C2.56237 9.7646 2.22659 10.1004 2.22659 10.5146H2.97659H3.72659ZM3.85624 20.1239L4.38595 19.593L4.38595 19.593L3.85624 20.1239ZM12.9876 21.7515C13.4018 21.7515 13.7376 21.4157 13.7376 21.0015C13.7376 20.5873 13.4018 20.2515 12.9876 20.2515V21.0015V21.7515ZM6.98148 16.2566C6.56726 16.2566 6.23148 16.5924 6.23148 17.0066C6.23148 17.4208 6.56726 17.7566 6.98148 17.7566V17.0066V16.2566ZM10.9859 17.7566C11.4001 17.7566 11.7359 17.4208 11.7359 17.0066C11.7359 16.5924 11.4001 16.2566 10.9859 16.2566V17.0066V17.7566ZM18.8695 21.7433L18.2347 21.344L18.2346 21.3441L18.8695 21.7433ZM18.1187 21.7433L17.4969 22.1626L17.4969 22.1626L18.1187 21.7433ZM18.4942 16.2566C18.08 16.2566 17.7442 16.5924 17.7442 17.0066C17.7442 17.4208 18.08 17.7566 18.4942 17.7566V17.0066V16.2566ZM18.5032 17.7566C18.9174 17.7566 19.2532 17.4208 19.2532 17.0066C19.2532 16.5924 18.9174 16.2566 18.5032 16.2566V17.0066V17.7566ZM17.7957 2.00254L17.7975 2.75254C17.8124 2.75251 17.8273 2.75203 17.8422 2.7511L17.7957 2.00254ZM6.14986 2.03002L6.1134 2.77914C6.12613 2.77976 6.13888 2.78005 6.15163 2.78002L6.14986 2.03002ZM2.82527 6.70798L3.43902 7.13904L3.43902 7.13904L2.82527 6.70798ZM2.44074 9.72544L1.78974 10.0979L1.78975 10.0979L2.44074 9.72544ZM4.86865 10.9946L4.80401 11.7418C4.82014 11.7432 4.83632 11.7441 4.85251 11.7444L4.86865 10.9946ZM7.99068 8.1178L8.69993 7.87395C8.58077 7.52736 8.22856 7.31765 7.86706 7.37806C7.50557 7.43847 7.24068 7.7513 7.24068 8.1178H7.99068ZM13.3158 10.8016L13.1254 10.0762L13.1254 10.0762L13.3158 10.8016ZM16.0391 8.1178L16.7842 8.03236C16.7428 7.67144 16.4487 7.39207 16.0862 7.36928C15.7236 7.34649 15.3968 7.58683 15.3105 7.93973L16.0391 8.1178ZM18.0663 10.8158L18.3388 10.117L18.3387 10.117L18.0663 10.8158ZM21.3848 9.9642L21.8819 10.5258L21.882 10.5258L21.3848 9.9642ZM21.2968 6.83288L21.8753 6.35554L21.8753 6.35553L21.2968 6.83288ZM20.1033 4.11599L20.8483 4.02985L20.8483 4.02971L20.1033 4.11599ZM19.5972 2.66323L20.1049 2.11119L20.1048 2.11115L19.5972 2.66323ZM2.97659 10.5146H2.22659V15.009H2.97659H3.72659V10.5146H2.97659ZM2.97659 15.009H2.22659C2.22659 16.4002 2.22499 17.5192 2.34326 18.3969C2.46447 19.2963 2.72382 20.0535 3.32653 20.6549L3.85624 20.1239L4.38595 19.593C4.10901 19.3167 3.92853 18.9289 3.82983 18.1965C3.72819 17.4423 3.72659 16.4427 3.72659 15.009H2.97659ZM3.85624 20.1239L3.32652 20.6548C3.92899 21.2559 4.68735 21.5143 5.58804 21.6351C6.46733 21.7531 7.58857 21.7515 8.98318 21.7515V21.0015V20.2515C7.54626 20.2515 6.54384 20.2499 5.78746 20.1485C5.05247 20.0499 4.66313 19.8695 4.38595 19.593L3.85624 20.1239ZM8.98318 21.0015V21.7515H12.9876V21.0015V20.2515H8.98318V21.0015ZM6.98148 17.0066V17.7566H10.9859V17.0066V16.2566H6.98148V17.0066ZM18.4941 13.5107V14.2607C20.0301 14.2607 21.248 15.4756 21.248 16.9408H21.998H22.748C22.748 14.6172 20.8283 12.7607 18.4941 12.7607V13.5107ZM21.998 16.9408H21.248C21.248 17.7333 20.8688 18.3567 20.254 19.0428C19.9326 19.4016 19.613 19.7088 19.2412 20.0997C18.8907 20.4681 18.5276 20.8782 18.2347 21.344L18.8695 21.7433L19.5043 22.1427C19.7165 21.8053 19.9971 21.4814 20.328 21.1335C20.6375 20.8082 21.0369 20.417 21.3712 20.0437C22.0682 19.2659 22.748 18.2911 22.748 16.9408H21.998ZM18.8695 21.7433L18.2346 21.3441C18.2007 21.3979 18.2739 21.2501 18.4999 21.2501C18.7179 21.2501 18.7841 21.3887 18.7405 21.324L18.1187 21.7433L17.4969 22.1626C17.6842 22.4403 18.0182 22.7501 18.4999 22.7501C18.9899 22.7501 19.323 22.4311 19.5044 22.1425L18.8695 21.7433ZM18.1187 21.7433L18.7405 21.324C18.443 20.8828 18.0807 20.483 17.7331 20.1185C17.371 19.7388 17.0403 19.4122 16.7283 19.0556C16.116 18.3556 15.7403 17.7154 15.7403 16.9408H14.9903H14.2403C14.2403 18.2643 14.9078 19.2527 15.5993 20.0432C15.9392 20.4318 16.3254 20.8159 16.6476 21.1537C16.9842 21.5067 17.2734 21.8312 17.4969 22.1626L18.1187 21.7433ZM14.9903 16.9408H15.7403C15.7403 15.4756 16.9581 14.2607 18.4941 14.2607V13.5107V12.7607C16.1599 12.7607 14.2403 14.6172 14.2403 16.9408H14.9903ZM18.4942 17.0066V17.7566H18.5032V17.0066V16.2566H18.4942V17.0066ZM17.7957 2.00254L17.7939 1.25255L6.14809 1.28003L6.14986 2.03002L6.15163 2.78002L17.7975 2.75254L17.7957 2.00254ZM6.14986 2.03002L6.18632 1.28091C5.10874 1.22846 4.33058 1.60234 3.83677 2.17827C3.3721 2.72021 3.21603 3.37429 3.21603 3.83056H3.96603H4.71603C4.71603 3.66788 4.78279 3.37939 4.97549 3.15465C5.13905 2.96389 5.4528 2.74698 6.1134 2.77914L6.14986 2.03002ZM3.96603 3.83056H3.21603C3.21603 4.05636 3.20224 4.31153 3.08294 4.67297C2.95974 5.0462 2.71405 5.56141 2.21152 6.27693L2.82527 6.70798L3.43902 7.13904C4.0018 6.33774 4.32649 5.69104 4.50734 5.14315C4.69209 4.58348 4.71603 4.15835 4.71603 3.83056H3.96603ZM2.82527 6.70798L2.21152 6.27692C1.67735 7.03748 1.31833 7.67445 1.26111 8.32614C1.20064 9.01497 1.48982 9.57362 1.78974 10.0979L2.44074 9.72544L3.09174 9.35302C2.79092 8.8272 2.73972 8.63552 2.75536 8.45733C2.77427 8.24201 2.90788 7.89528 3.43902 7.13904L2.82527 6.70798ZM2.44074 9.72544L1.78975 10.0979C2.15148 10.7302 2.75755 11.1193 3.29424 11.353C3.83913 11.5903 4.40202 11.707 4.80401 11.7418L4.86865 10.9946L4.93329 10.2474C4.67406 10.225 4.27229 10.1429 3.89317 9.97775C3.50585 9.80907 3.22857 9.59218 3.09173 9.35301L2.44074 9.72544ZM4.86865 10.9946L4.85251 11.7444C7.45916 11.8005 8.74068 9.65292 8.74068 8.1178H7.99068H7.24068C7.24068 8.99471 6.47855 10.2791 4.88479 10.2448L4.86865 10.9946ZM7.99068 8.1178L7.28143 8.36165C7.8858 10.1195 9.07795 11.038 10.3178 11.4395C11.5195 11.8286 12.7404 11.728 13.5062 11.527L13.3158 10.8016L13.1254 10.0762C12.571 10.2217 11.6503 10.2943 10.7799 10.0125C9.94773 9.74301 9.13742 9.14641 8.69993 7.87395L7.99068 8.1178ZM13.3158 10.8016L13.5062 11.527C14.3234 11.3126 15.0514 10.8324 15.6083 10.2653C16.1621 9.70145 16.595 9.00238 16.7677 8.29588L16.0391 8.1178L15.3105 7.93973C15.2158 8.32723 14.9484 8.79651 14.5381 9.21426C14.131 9.62882 13.631 9.9435 13.1254 10.0762L13.3158 10.8016ZM16.0391 8.1178L15.294 8.20325C15.3791 8.94515 15.56 9.62642 15.9771 10.2089C16.3994 10.7985 17.0059 11.2074 17.7939 11.5146L18.0663 10.8158L18.3387 10.117C17.7286 9.87913 17.3995 9.61876 17.1966 9.33553C16.9887 9.04519 16.855 8.65 16.7842 8.03236L16.0391 8.1178ZM18.0663 10.8158L17.7938 11.5146C19.6728 12.2472 21.2301 11.1028 21.8819 10.5258L21.3848 9.9642L20.8877 9.40264C20.2897 9.93202 19.3562 10.5138 18.3388 10.117L18.0663 10.8158ZM21.3848 9.9642L21.882 10.5258C22.3341 10.1254 22.6871 9.50073 22.7409 8.751C22.7958 7.98661 22.5364 7.15667 21.8753 6.35554L21.2968 6.83288L20.7183 7.31023C21.1711 7.859 21.2681 8.3181 21.2448 8.64358C21.2204 8.98373 21.0604 9.24975 20.8876 9.40265L21.3848 9.9642ZM21.2968 6.83288L21.8753 6.35553C21.2017 5.5393 20.9373 4.7991 20.8483 4.02985L20.1033 4.11599L19.3583 4.20214C19.4795 5.25078 19.8555 6.2646 20.7183 7.31024L21.2968 6.83288ZM20.1033 4.11599L20.8483 4.02971C20.8201 3.78633 20.7859 3.4476 20.697 3.12681C20.6046 2.79344 20.4385 2.41796 20.1049 2.11119L19.5972 2.66323L19.0895 3.21528C19.1475 3.26863 19.204 3.3562 19.2515 3.52751C19.3025 3.71139 19.3255 3.91898 19.3583 4.20228L20.1033 4.11599ZM19.5972 2.66323L20.1048 2.11115C19.3534 1.42023 18.3183 1.21866 17.7492 1.25398L17.7957 2.00254L17.8422 2.7511C17.9396 2.74505 18.1546 2.76167 18.4109 2.84182C18.6619 2.92036 18.9043 3.04498 19.0896 3.21532L19.5972 2.66323Z" fill="#727272"/>
</g>
</svg>
