<svg width="14" height="14" viewBox="0 0 14 14" fill="none" xmlns="http://www.w3.org/2000/svg">
<path d="M2.24845 6.12179C2.24845 5.84565 2.0246 5.62179 1.74845 5.62179C1.47231 5.62179 1.24845 5.84565 1.24845 6.12179H1.74845H2.24845ZM7.29014 12.7504C7.56628 12.7504 7.79014 12.5265 7.79014 12.2504C7.79014 11.9742 7.56628 11.7504 7.29014 11.7504V12.2504V12.7504ZM12.7485 6.12179C12.7485 5.84565 12.5246 5.62179 12.2485 5.62179C11.9723 5.62179 11.7485 5.84565 11.7485 6.12179H12.2485H12.7485ZM11.7485 7.58094C11.7485 7.85708 11.9723 8.08094 12.2485 8.08094C12.5246 8.08094 12.7485 7.85708 12.7485 7.58094H12.2485H11.7485ZM4.08179 9.41072C3.80564 9.41072 3.58179 9.63458 3.58179 9.91072C3.58179 10.1869 3.80564 10.4107 4.08179 10.4107V9.91072V9.41072ZM6.41514 10.4107C6.69128 10.4107 6.91514 10.1869 6.91514 9.91072C6.91514 9.63458 6.69128 9.41072 6.41514 9.41072V9.91072V10.4107ZM9.68546 8.97872C9.49026 8.7834 9.17368 8.7833 8.97836 8.97851C8.78304 9.17371 8.78294 9.49029 8.97815 9.68562L9.3318 9.33217L9.68546 8.97872ZM12.4782 13.1877C12.6734 13.383 12.9899 13.3831 13.1853 13.1879C13.3806 12.9927 13.3807 12.6761 13.1855 12.4808L12.8318 12.8342L12.4782 13.1877ZM8.97815 12.4808C8.78294 12.6761 8.78303 12.9927 8.97835 13.1879C9.17367 13.3831 9.49025 13.383 9.68546 13.1877L9.3318 12.8342L8.97815 12.4808ZM13.1855 9.68561C13.3807 9.49029 13.3806 9.17371 13.1853 8.97851C12.9899 8.7833 12.6733 8.7834 12.4781 8.97872L12.8318 9.33217L13.1855 9.68561ZM10.3804 1.16751L10.3816 1.66751C10.3916 1.66748 10.4016 1.66716 10.4115 1.66654L10.3804 1.16751ZM3.58699 1.18361L3.56256 1.68302C3.5711 1.68343 3.57964 1.68363 3.58818 1.68361L3.58699 1.18361ZM1.64765 3.92593L2.05748 4.21236L2.05748 4.21236L1.64765 3.92593ZM1.42334 5.69483L1.85787 5.44748L1.85786 5.44747L1.42334 5.69483ZM2.83962 6.43883L2.7963 6.93695C2.80712 6.93789 2.81796 6.93848 2.82881 6.93872L2.83962 6.43883ZM4.66081 4.7524L5.13389 4.59055C5.05475 4.35923 4.81994 4.21906 4.57877 4.25918C4.3376 4.29929 4.16081 4.50792 4.16081 4.7524H4.66081ZM7.76713 6.32573L7.89464 6.80919L7.89465 6.80919L7.76713 6.32573ZM9.35572 4.7524L9.8525 4.69571C9.82502 4.45493 9.62882 4.26851 9.38694 4.25338C9.14507 4.23824 8.92716 4.39875 8.86988 4.63423L9.35572 4.7524ZM10.5383 6.33407L10.3558 6.7996L10.3559 6.79961L10.5383 6.33407ZM12.474 5.83479L12.1417 5.46123L12.1417 5.46125L12.474 5.83479ZM12.4227 3.99915L12.8091 3.68186L12.8091 3.68185L12.4227 3.99915ZM11.7265 2.40645L12.2232 2.3493L12.2232 2.3492L11.7265 2.40645ZM11.4312 1.55481L11.0919 1.92201L11.0919 1.92205L11.4312 1.55481ZM1.74845 6.12179H1.24845V8.74831H1.74845H2.24845V6.12179H1.74845ZM1.74845 8.74831H1.24845C1.24845 9.5596 1.24739 10.2184 1.31698 10.7362C1.38849 11.2684 1.54274 11.7261 1.90736 12.0909L2.26102 11.7375L2.61468 11.384C2.46673 11.236 2.3647 11.0245 2.30807 10.603C2.24951 10.1673 2.24845 9.58785 2.24845 8.74831H1.74845ZM2.26102 11.7375L1.90736 12.0909C2.27201 12.4558 2.72952 12.6102 3.26157 12.6818C3.7792 12.7514 4.43764 12.7504 5.24845 12.7504V12.2504V11.7504C4.40935 11.7504 3.83036 11.7493 3.39489 11.6907C2.97384 11.6341 2.76258 11.532 2.61468 11.384L2.26102 11.7375ZM5.24845 12.2504V12.7504H7.29014V12.2504V11.7504H5.24845V12.2504ZM12.2485 6.12179H11.7485V7.58094H12.2485H12.7485V6.12179H12.2485ZM4.08179 9.91072V10.4107H6.41514V9.91072V9.41072H4.08179V9.91072ZM9.3318 9.33217L8.97815 9.68562L10.7281 11.4367L11.0818 11.0832L11.4355 10.7298L9.68546 8.97872L9.3318 9.33217ZM11.0818 11.0832L10.7282 11.4367L12.4782 13.1877L12.8318 12.8342L13.1855 12.4808L11.4355 10.7298L11.0818 11.0832ZM11.0818 11.0832L10.7282 10.7298L8.97815 12.4808L9.3318 12.8342L9.68546 13.1877L11.4355 11.4367L11.0818 11.0832ZM11.0818 11.0832L11.4355 11.4367L13.1855 9.68561L12.8318 9.33217L12.4781 8.97872L10.7281 10.7298L11.0818 11.0832ZM10.3804 1.16751L10.3792 0.667509L3.58581 0.683614L3.58699 1.18361L3.58818 1.68361L10.3816 1.66751L10.3804 1.16751ZM3.58699 1.18361L3.61142 0.68421C2.96452 0.652568 2.49098 0.878766 2.18945 1.23217C1.90748 1.56265 1.81309 1.96046 1.81309 2.23913H2.31309H2.81309C2.81309 2.15495 2.84869 2.0002 2.95019 1.88124C3.03213 1.7852 3.19554 1.66506 3.56256 1.68302L3.58699 1.18361ZM2.31309 2.23913H1.81309C1.81309 2.36757 1.80544 2.51059 1.73838 2.71475C1.66875 2.92671 1.52854 3.22353 1.23782 3.63951L1.64765 3.92593L2.05748 4.21236C2.38819 3.73915 2.58069 3.35483 2.68844 3.02681C2.79874 2.691 2.81309 2.4352 2.81309 2.23913H2.31309ZM1.64765 3.92593L1.23782 3.63951C0.925982 4.0857 0.7078 4.4705 0.672945 4.86947C0.635945 5.29299 0.813798 5.63476 0.988815 5.9422L1.42334 5.69483L1.85786 5.44747C1.68245 5.13934 1.66175 5.04125 1.66915 4.9565C1.6787 4.84721 1.74788 4.65535 2.05748 4.21236L1.64765 3.92593ZM1.42334 5.69483L0.988811 5.94219C1.20883 6.32869 1.5758 6.56401 1.89544 6.7039C2.22036 6.8461 2.55564 6.91603 2.7963 6.93695L2.83962 6.43883L2.88294 5.94071C2.73789 5.9281 2.51045 5.88148 2.29636 5.78779C2.077 5.69178 1.92868 5.57188 1.85787 5.44748L1.42334 5.69483ZM2.83962 6.43883L2.82881 6.93872C4.39381 6.97255 5.16081 5.67629 5.16081 4.7524H4.66081H4.16081C4.16081 5.24249 3.73567 5.95809 2.85043 5.93895L2.83962 6.43883ZM4.66081 4.7524L4.18773 4.91425C4.54676 5.96369 5.25745 6.51575 5.99836 6.75686C6.71361 6.98961 7.4388 6.92942 7.89464 6.80919L7.76713 6.32573L7.63962 5.84226C7.32534 5.92515 6.80125 5.96651 6.30781 5.80594C5.84003 5.65371 5.38261 5.31755 5.13389 4.59055L4.66081 4.7524ZM7.76713 6.32573L7.89465 6.80919C8.38472 6.67993 8.81893 6.39135 9.14988 6.05271C9.47883 5.71612 9.7378 5.29715 9.84156 4.87057L9.35572 4.7524L8.86988 4.63423C8.81766 4.84898 8.66815 5.1149 8.43471 5.35376C8.20327 5.59058 7.92118 5.76799 7.63961 5.84226L7.76713 6.32573ZM9.35572 4.7524L8.85894 4.80908C8.90911 5.24871 9.01643 5.65931 9.26807 6.01243C9.52325 6.3705 9.8885 6.61646 10.3558 6.7996L10.5383 6.33407L10.7207 5.86854C10.3725 5.73207 10.1919 5.58569 10.0824 5.43208C9.96944 5.27351 9.89328 5.05308 9.8525 4.69571L9.35572 4.7524ZM10.5383 6.33407L10.3559 6.79961C11.4892 7.24363 12.4244 6.54823 12.8064 6.20834L12.474 5.83479L12.1417 5.46125C11.7946 5.77002 11.2769 6.08647 10.7207 5.86852L10.5383 6.33407ZM12.474 5.83479L12.8064 6.20835C13.0817 5.96344 13.2949 5.58295 13.3275 5.12774C13.3607 4.6628 13.2032 4.16174 12.8091 3.68186L12.4227 3.99915L12.0363 4.31645C12.292 4.6279 12.3424 4.88251 12.33 5.05648C12.3169 5.24018 12.2309 5.38183 12.1417 5.46123L12.474 5.83479ZM12.4227 3.99915L12.8091 3.68185C12.4239 3.21264 12.2739 2.78952 12.2232 2.3493L11.7265 2.40645L11.2298 2.4636C11.3017 3.08908 11.5253 3.6942 12.0363 4.31645L12.4227 3.99915ZM11.7265 2.40645L12.2232 2.3492C12.207 2.20808 12.1866 2.00443 12.1332 1.81104C12.0776 1.60941 11.9764 1.37776 11.7705 1.18757L11.4312 1.55481L11.0919 1.92205C11.1146 1.94298 11.1432 1.98277 11.1692 2.077C11.1975 2.17947 11.2105 2.29607 11.2298 2.4637L11.7265 2.40645ZM11.4312 1.55481L11.7706 1.18762C11.3175 0.768829 10.6954 0.646883 10.3493 0.668478L10.3804 1.16751L10.4115 1.66654C10.4591 1.66357 10.5766 1.67182 10.7199 1.71688C10.8597 1.76083 10.9922 1.82987 11.0919 1.92201L11.4312 1.55481Z" fill="#D3120E"/>
</svg>
