<svg width="20" height="21" viewBox="0 0 20 21" fill="none" xmlns="http://www.w3.org/2000/svg">
<g opacity="0.5">
<path d="M13.3333 2.16663V5.49996M6.66667 2.16663V5.49996M2.5 8.83329H17.5M9.16667 12.1666H13.3333M6.66667 12.1666H6.67415M10.8333 15.5H6.66667M13.3333 15.5H13.3258M10.8333 3.83329H9.16667C6.02397 3.83329 4.45262 3.83329 3.47631 4.8096C2.5 5.78592 2.5 7.35726 2.5 10.5V12.1666C2.5 15.3093 2.5 16.8807 3.47631 17.857C4.45262 18.8333 6.02397 18.8333 9.16667 18.8333H10.8333C13.976 18.8333 15.5474 18.8333 16.5237 17.857C17.5 16.8807 17.5 15.3093 17.5 12.1666V10.5C17.5 7.35726 17.5 5.78592 16.5237 4.8096C15.5474 3.83329 13.976 3.83329 10.8333 3.83329Z" stroke="#727272" stroke-width="1.5" stroke-linecap="round" stroke-linejoin="round"/>
</g>
</svg>
