<svg width="25" height="24" viewBox="0 0 25 24" fill="none" xmlns="http://www.w3.org/2000/svg">
<path fill-rule="evenodd" clip-rule="evenodd" d="M4.69995 19.75C4.69995 19.1977 5.14767 18.75 5.69995 18.75H19.7C20.2523 18.75 20.7 19.1977 20.7 19.75C20.7 20.3023 20.2523 20.75 19.7 20.75H5.69995C5.14767 20.75 4.69995 20.3023 4.69995 19.75Z" fill="#00B140"/>
<path d="M11.3155 3.17308C11.5484 2.61401 12.0946 2.25 12.7001 2.25C13.3058 2.25 13.8517 2.61418 14.0847 3.17298L16.1545 8.14058C16.2838 8.45099 16.1908 8.80955 15.9268 9.01784C15.6351 9.24796 15.4501 9.60213 15.4501 10C15.4501 10.6904 16.0097 11.25 16.7001 11.25C17.3904 11.25 17.9501 10.6904 17.9501 10C17.9501 9.86682 17.9295 9.73986 17.8919 9.62134C17.8006 9.33342 17.8909 9.01881 18.121 8.82315L20.6746 6.65185C21.336 6.08937 22.3272 6.12028 22.9509 6.72635C23.3977 7.16054 23.5643 7.80863 23.3703 8.40559L23.3682 8.41202L20.8684 15.8736C20.4929 16.9945 19.443 17.75 18.2609 17.75H7.13928C5.95712 17.75 4.90723 16.9945 4.53171 15.8736L2.02986 8.40558C1.83586 7.80862 2.00249 7.16054 2.4493 6.72635C3.073 6.12027 4.06407 6.08938 4.72555 6.65183L7.27916 8.82311C7.50928 9.01878 7.59956 9.33341 7.5082 9.62133C7.4706 9.73982 7.45003 9.86678 7.45003 10C7.45003 10.6904 8.00967 11.25 8.70003 11.25C9.39039 11.25 9.95003 10.6904 9.95003 10C9.95003 9.60216 9.76502 9.24797 9.47335 9.01782C9.20936 8.80952 9.11629 8.45098 9.24562 8.14057L11.3155 3.17308Z" fill="#00B140"/>
</svg>
