<svg width="24" height="24" viewBox="0 0 24 24" fill="none" xmlns="http://www.w3.org/2000/svg">
<path fill-rule="evenodd" clip-rule="evenodd" d="M21.4705 2.5294C20.9663 2.0252 20.2081 1.74402 19.4594 1.57208C18.6861 1.39446 17.8008 1.30726 16.9308 1.27116C15.1883 1.19887 13.4078 1.32827 12.4977 1.4119C11.9297 1.46409 11.4053 1.69644 10.9831 2.05931C7.83082 4.76863 4.9611 7.57712 2.21543 10.6436C0.959114 12.0467 0.945789 14.1416 2.07709 15.6028C3.94283 18.0125 5.98744 20.0571 8.39712 21.9228C9.85825 23.0541 11.9532 23.0408 13.3563 21.7845C16.4228 19.0388 19.2313 16.1691 21.9406 13.0168C22.3035 12.5945 22.5358 12.0701 22.588 11.5022C22.6716 10.5921 22.801 8.81159 22.7287 7.06907C22.6926 6.19907 22.6054 5.31381 22.4278 4.54046C22.2559 3.79184 21.9747 3.0336 21.4705 2.5294ZM10.9961 8C10.4438 8 9.99609 8.44772 9.99609 9C9.99609 9.55229 10.4438 10 10.9961 10H11.011C11.5633 10 12.011 9.55229 12.011 9C12.011 8.44772 11.5633 8 11.011 8H10.9961ZM10.9998 16C10.4475 16 9.9998 16.4477 9.9998 17C9.9998 17.5522 10.4475 18 10.9998 18H11.0147C11.567 18 12.0147 17.5522 12.0147 17C12.0147 16.4477 11.567 16 11.0147 16H10.9998ZM6 13C6 12.4477 6.44772 12 7 12H15C15.5522 12 16 12.4477 16 13C16 13.5522 15.5522 14 15 14H7C6.44772 14 6 13.5522 6 13ZM17.5 5C18.3284 5 19 5.67157 19 6.5C19 7.32843 18.3284 8 17.5 8C16.6715 8 16 7.32843 16 6.5C16 5.67157 16.6715 5 17.5 5Z" fill="#262626"/>
</svg>
