<svg width="24" height="24" viewBox="0 0 24 24" fill="none" xmlns="http://www.w3.org/2000/svg">
<g opacity="0.7">
<path d="M10.9961 9.25C10.5819 9.25 10.2461 9.58579 10.2461 10C10.2461 10.4142 10.5819 10.75 10.9961 10.75V10V9.25ZM11.0111 10.75C11.4253 10.75 11.7611 10.4142 11.7611 10C11.7611 9.58579 11.4253 9.25 11.0111 9.25V10V10.75ZM10.9998 15.25C10.5856 15.25 10.2498 15.5858 10.2498 16C10.2498 16.4142 10.5856 16.75 10.9998 16.75V16V15.25ZM11.0148 16.75C11.429 16.75 11.7648 16.4142 11.7648 16C11.7648 15.5858 11.429 15.25 11.0148 15.25V16V16.75ZM7 12.25C6.58579 12.25 6.25 12.5858 6.25 13C6.25 13.4142 6.58579 13.75 7 13.75V13V12.25ZM15 13.75C15.4142 13.75 15.75 13.4142 15.75 13C15.75 12.5858 15.4142 12.25 15 12.25V13V13.75ZM2.77423 11.1439L2.21548 10.6436L2.21547 10.6436L2.77423 11.1439ZM2.67016 15.1437L2.07714 15.6028L2.07714 15.6029L2.67016 15.1437ZM8.85633 21.3298L9.3155 20.7368L9.31548 20.7368L8.85633 21.3298ZM12.8561 21.2258L13.3564 21.7846L13.3564 21.7845L12.8561 21.2258ZM21.3719 12.5279L20.8032 12.039L20.8031 12.039L21.3719 12.5279ZM21.8412 11.4336L21.0944 11.365L21.0943 11.365L21.8412 11.4336ZM20.9403 3.05974L21.4706 2.52942L21.4706 2.5294L20.9403 3.05974ZM12.5664 2.15876L12.4978 1.41191L12.4978 1.41191L12.5664 2.15876ZM11.472 2.62811L10.9832 2.05927L10.9831 2.05932L11.472 2.62811ZM10.9961 10V10.75H11.0111V10V9.25H10.9961V10ZM10.9998 16V16.75H11.0148V16V15.25H10.9998V16ZM7 13V13.75H15V13V12.25H7V13ZM19 6.5H19.75C19.75 5.25736 18.7426 4.25 17.5 4.25V5V5.75C17.9142 5.75 18.25 6.08579 18.25 6.5H19ZM17.5 5V4.25C16.2574 4.25 15.25 5.25736 15.25 6.5H16H16.75C16.75 6.08579 17.0858 5.75 17.5 5.75V5ZM16 6.5H15.25C15.25 7.74264 16.2574 8.75 17.5 8.75V8V7.25C17.0858 7.25 16.75 6.91421 16.75 6.5H16ZM17.5 8V8.75C18.7426 8.75 19.75 7.74264 19.75 6.5H19H18.25C18.25 6.91421 17.9142 7.25 17.5 7.25V8ZM2.77423 11.1439L2.21547 10.6436C0.959164 12.0468 0.945839 14.1417 2.07714 15.6028L2.67016 15.1437L3.26319 14.6845C2.55317 13.7675 2.583 12.4818 3.33299 11.6442L2.77423 11.1439ZM2.67016 15.1437L2.07714 15.6029C3.94288 18.0126 5.98749 20.0571 8.39718 21.9228L8.85633 21.3298L9.31548 20.7368C7.00599 18.9487 5.05135 16.994 3.26319 14.6845L2.67016 15.1437ZM8.85633 21.3298L8.39716 21.9228C9.8583 23.0542 11.9532 23.0408 13.3564 21.7846L12.8561 21.2258L12.3558 20.667C11.5182 21.417 10.2325 21.4468 9.3155 20.7368L8.85633 21.3298ZM12.8561 21.2258L13.3564 21.7845C16.4229 19.0388 19.2313 16.1692 21.9407 13.0168L21.3719 12.5279L20.8031 12.039C18.1357 15.1426 15.3729 17.9656 12.3558 20.667L12.8561 21.2258ZM21.3719 12.5279L21.9406 13.0168C22.3036 12.5946 22.5359 12.0701 22.5881 11.5022L21.8412 11.4336L21.0943 11.365C21.0719 11.6093 20.9718 11.8428 20.8032 12.039L21.3719 12.5279ZM21.8412 11.4336L22.5881 11.5022C22.6717 10.5921 22.8011 8.8116 22.7288 7.06908C22.6927 6.19908 22.6055 5.31382 22.4279 4.54047C22.256 3.79186 21.9748 3.03362 21.4706 2.52942L20.9403 3.05974L20.41 3.59006C20.6082 3.78833 20.8115 4.2036 20.966 4.87623C21.1148 5.52413 21.196 6.30784 21.2301 7.13124C21.2983 8.77552 21.1757 10.4794 21.0944 11.365L21.8412 11.4336ZM20.9403 3.05974L21.4706 2.5294C20.9664 2.02521 20.2082 1.74403 19.4595 1.57209C18.6862 1.39447 17.8009 1.30727 16.9309 1.27117C15.1884 1.19888 13.4079 1.32828 12.4978 1.41191L12.5664 2.15876L12.635 2.90561C13.5206 2.82425 15.2245 2.70167 16.8687 2.76989C17.6921 2.80404 18.4759 2.88522 19.1238 3.03402C19.7964 3.18851 20.2117 3.39181 20.41 3.59008L20.9403 3.05974ZM12.5664 2.15876L12.4978 1.41191C11.9298 1.4641 11.4054 1.69645 10.9832 2.05927L11.472 2.62811L11.9608 3.19695C12.1572 3.02821 12.3908 2.92806 12.635 2.90561L12.5664 2.15876ZM11.472 2.62811L10.9831 2.05932C7.83086 4.76865 4.96116 7.57713 2.21548 10.6436L2.77423 11.1439L3.33298 11.6442C6.03447 8.62709 8.85738 5.86427 11.9609 3.19689L11.472 2.62811Z" fill="#727272"/>
</g>
</svg>
