<svg width="15" height="14" viewBox="0 0 15 14" fill="none" xmlns="http://www.w3.org/2000/svg">
<path d="M8.70901 2.26647L8.34159 1.92735L8.34159 1.92735L8.70901 2.26647ZM9.592 1.42267L9.33641 0.992931L9.33641 0.992934L9.592 1.42267ZM11.4021 1.39548L11.6448 0.95834L11.6448 0.958328L11.4021 1.39548ZM13.1086 3.13883L12.6672 3.37362L12.6672 3.37369L13.1086 3.13883ZM13.082 4.98787L12.6476 4.74029L12.6476 4.7403L13.082 4.98787ZM12.256 5.88988L12.6029 6.25L12.6029 6.24999L12.256 5.88988ZM6.77053 11.1733L6.42367 10.8132L6.42367 10.8132L6.77053 11.1733ZM4.91405 12.6488L4.73217 12.183L4.73213 12.1831L4.91405 12.6488ZM2.56748 12.815L2.58054 12.3151L2.58051 12.3151L2.56748 12.815ZM2.40415 12.8107L2.39107 13.3105L2.39112 13.3105L2.40415 12.8107ZM1.74978 12.6758L2.12497 12.3453L2.12488 12.3452L1.74978 12.6758ZM1.68706 11.9969L1.18857 11.9581L1.18857 11.9581L1.68706 11.9969ZM1.70281 11.7948L2.2013 11.8336L2.2013 11.8336L1.70281 11.7948ZM2.02985 9.75224L2.48844 9.95148L2.48844 9.95148L2.02985 9.75224ZM3.29318 8.13425L2.92576 7.79513L2.92576 7.79514L3.29318 8.13425ZM8.66602 12.3333C8.38987 12.3333 8.16602 12.5571 8.16602 12.8333C8.16602 13.1094 8.38987 13.3333 8.66602 13.3333V12.8333V12.3333ZM13.3327 13.3333C13.6088 13.3333 13.8327 13.1094 13.8327 12.8333C13.8327 12.5571 13.6088 12.3333 13.3327 12.3333V12.8333V13.3333ZM8.70901 2.26647L9.07642 2.6056C9.53573 2.10797 9.69502 1.94315 9.84759 1.8524L9.592 1.42267L9.33641 0.992934C9.02709 1.1769 8.75169 1.48304 8.34159 1.92735L8.70901 2.26647ZM9.592 1.42267L9.84759 1.85241C10.252 1.61188 10.7485 1.6045 11.1594 1.83263L11.4021 1.39548L11.6448 0.958328C10.9225 0.557352 10.0465 0.570592 9.33641 0.992931L9.592 1.42267ZM11.4021 1.39548L11.1594 1.83262C11.3143 1.91866 11.4781 2.07849 11.9516 2.56217L12.3089 2.2124L12.6662 1.86263C12.2436 1.43091 11.9594 1.13302 11.6448 0.95834L11.4021 1.39548ZM12.3089 2.2124L11.9516 2.56217C12.4245 3.04517 12.5819 3.21334 12.6672 3.37362L13.1086 3.13883L13.5501 2.90405C13.3802 2.58459 13.0895 2.29505 12.6662 1.86263L12.3089 2.2124ZM13.1086 3.13883L12.6672 3.37369C12.8947 3.80119 12.8871 4.32007 12.6476 4.74029L13.082 4.98787L13.5164 5.23545C13.9258 4.5171 13.9385 3.63404 13.55 2.90398L13.1086 3.13883ZM13.082 4.98787L12.6476 4.7403C12.5578 4.89786 12.3957 5.06115 11.9092 5.52976L12.256 5.88988L12.6029 6.24999C13.0384 5.83051 13.3373 5.54975 13.5164 5.23544L13.082 4.98787ZM12.256 5.88988L11.9092 5.52975L6.42367 10.8132L6.77053 11.1733L7.11739 11.5334L12.6029 6.25L12.256 5.88988ZM6.77053 11.1733L6.42367 10.8132C5.52014 11.6835 5.16335 12.0147 4.73217 12.183L4.91405 12.6488L5.09593 13.1145C5.75668 12.8565 6.27359 12.3462 7.1174 11.5334L6.77053 11.1733ZM4.91405 12.6488L4.73213 12.1831C4.30204 12.3511 3.82221 12.3476 2.58054 12.3151L2.56748 12.815L2.55441 13.3148C3.71356 13.3451 4.43413 13.373 5.09598 13.1145L4.91405 12.6488ZM2.56748 12.815L2.58051 12.3151L2.41719 12.3109L2.40415 12.8107L2.39112 13.3105L2.55445 13.3148L2.56748 12.815ZM2.40415 12.8107L2.41724 12.3109C2.32395 12.3084 2.25114 12.3065 2.18884 12.3032C2.12624 12.3 2.08728 12.2959 2.06207 12.2917C2.03716 12.2875 2.03999 12.2855 2.05614 12.293C2.07663 12.3025 2.10263 12.3199 2.12497 12.3453L1.74978 12.6758L1.37459 13.0063C1.53395 13.1872 1.73468 13.2509 1.89745 13.2781C2.04468 13.3026 2.22317 13.3062 2.39107 13.3105L2.40415 12.8107ZM1.74978 12.6758L2.12488 12.3452C2.17659 12.4039 2.16991 12.4563 2.16694 12.4029C2.16539 12.3752 2.1656 12.3338 2.169 12.2694C2.17238 12.2053 2.17816 12.1307 2.18555 12.0358L1.68706 11.9969L1.18857 11.9581C1.17518 12.13 1.16016 12.3091 1.16849 12.4586C1.17756 12.6214 1.21675 12.8272 1.37467 13.0064L1.74978 12.6758ZM1.68706 11.9969L2.18555 12.0358L2.2013 11.8336L1.70281 11.7948L1.20432 11.7559L1.18857 11.9581L1.68706 11.9969ZM1.70281 11.7948L2.2013 11.8336C2.28555 10.7522 2.32496 10.3278 2.48844 9.95148L2.02985 9.75224L1.57126 9.553C1.32554 10.1186 1.28333 10.7418 1.20432 11.7559L1.70281 11.7948ZM2.02985 9.75224L2.48844 9.95148C2.65153 9.57607 2.93202 9.26277 3.66061 8.47337L3.29318 8.13425L2.92576 7.79514C2.24269 8.53523 1.81735 8.98656 1.57126 9.55301L2.02985 9.75224ZM3.29318 8.13425L3.6606 8.47337L9.07643 2.60559L8.70901 2.26647L8.34159 1.92735L2.92576 7.79513L3.29318 8.13425ZM8.08268 2.33329L7.72913 2.68685L11.8125 6.77018L12.166 6.41663L12.5196 6.06307L8.43624 1.97974L8.08268 2.33329ZM8.66602 12.8333V13.3333H13.3327V12.8333V12.3333H8.66602V12.8333Z" fill="white"/>
</svg>
