<svg width="20" height="21" viewBox="0 0 20 21" fill="none" xmlns="http://www.w3.org/2000/svg">
<path d="M5.83269 7.58332L8.28437 9.03282C9.71369 9.8779 10.285 9.8779 11.7144 9.03282L14.166 7.58332M1.67915 11.7297C1.73364 14.2842 1.76087 15.5616 2.70348 16.5077C3.64609 17.454 4.95796 17.4869 7.58171 17.5528C9.19877 17.5935 10.7999 17.5935 12.417 17.5528C15.0408 17.4869 16.3526 17.454 17.2952 16.5077C18.2379 15.5616 18.2651 14.2842 18.3195 11.7297C18.3371 10.9082 18.3371 10.0917 18.3195 9.27032C18.2651 6.71568 18.2379 5.43837 17.2952 4.49218C16.3526 3.54599 15.0408 3.51303 12.417 3.4471C10.7999 3.40647 9.19877 3.40647 7.5817 3.44709C4.95796 3.51301 3.64609 3.54597 2.70348 4.49217C1.76087 5.43836 1.73363 6.71567 1.67915 9.27023C1.66164 10.0917 1.66164 10.9082 1.67915 11.7297Z" stroke="#727272" stroke-width="1.5" stroke-linecap="round" stroke-linejoin="round"/>
</svg>
