<svg width="236" height="235" viewBox="0 0 236 235" fill="none" xmlns="http://www.w3.org/2000/svg">
<path d="M122.779 182.002L78.965 165.672C75.8909 164.526 73.8523 161.592 73.8523 158.311V119.339L122.779 137.573V182V182.002Z" fill="#D4DEE7" stroke="#D4DEE7" stroke-width="0.734375" stroke-linecap="round" stroke-linejoin="round"/>
<path d="M171.706 119.34L122.779 101.106L134.347 88.0498C135.372 86.8924 137.004 86.4856 138.452 87.0261L179.867 102.461C182.328 103.378 183.101 106.48 181.359 108.446L171.705 119.342L171.706 119.34Z" fill="white" stroke="#D4DEE7" stroke-width="0.734375" stroke-linecap="round" stroke-linejoin="round"/>
<path d="M73.8521 119.34L122.779 101.106L111.211 88.0498C110.186 86.8924 108.554 86.4856 107.106 87.0261L65.6918 102.461C63.2301 103.378 62.4576 106.48 64.1995 108.446L73.8536 119.342L73.8521 119.34Z" fill="white" stroke="#D4DEE7" stroke-width="0.734375" stroke-linecap="round" stroke-linejoin="round"/>
<path d="M122.78 137.575L73.8525 119.341V158.313C73.8525 161.592 75.8912 164.528 78.9653 165.674L89.0247 169.252L108.199 177.43C108.199 177.43 118.962 182.149 122.78 182.004C126.794 181.852 137.927 176.38 137.927 176.38L151.3 171.683L166.594 165.674C169.668 164.528 171.707 161.594 171.707 158.313V119.341L122.78 137.575Z" fill="#D4DEE7" stroke="#D4DEE7" stroke-width="0.734375" stroke-linecap="round" stroke-linejoin="round"/>
<path d="M122.779 137.575V182.002" stroke="white" stroke-width="0.734375" stroke-linecap="round" stroke-linejoin="round"/>
<path d="M138.453 151.654L179.867 136.219C182.329 135.303 183.101 132.201 181.359 130.234L171.705 119.339L122.778 137.573L134.346 150.629C135.371 151.786 137.003 152.193 138.451 151.653L138.453 151.654Z" fill="white" stroke="#D4DEE7" stroke-width="0.734375" stroke-linecap="round" stroke-linejoin="round"/>
<path d="M171.706 119.34L122.779 101.104L73.8523 119.34L122.779 137.575L171.706 119.34Z" fill="white" stroke="#D4DEE7" stroke-width="0.734375" stroke-linecap="round" stroke-linejoin="round"/>
<path d="M107.106 151.654L65.692 136.219C63.2304 135.303 62.4578 132.201 64.1997 130.234L73.8538 119.339L122.781 137.573L111.213 150.629C110.188 151.786 108.556 152.193 107.108 151.653L107.106 151.654Z" fill="white" stroke="#D4DEE7" stroke-width="0.734375" stroke-linecap="round" stroke-linejoin="round"/>
<path d="M156.956 97.3175C156.523 97.3792 156.119 97.2676 155.743 96.9812C155.367 96.6948 155.15 96.3408 155.089 95.9178C154.985 95.1893 155.533 94.1935 156.733 92.9318L160.114 89.5361C161.309 88.1672 161.838 86.9981 161.699 86.0258C161.524 84.7994 160.785 83.7522 159.485 82.8812C158.232 82.0367 156.981 81.7033 155.734 81.881C155.069 81.9764 154.271 82.4376 153.344 83.266C152.416 84.0944 151.832 84.5262 151.588 84.56C151.155 84.6217 150.757 84.5012 150.395 84.1972C150.034 83.8932 149.822 83.5245 149.759 83.0912C149.64 82.257 150.329 81.3111 151.829 80.2551C153.171 79.3077 154.317 78.7672 155.269 78.6306C157.392 78.3266 159.44 78.8803 161.411 80.2918C163.382 81.7033 164.517 83.4658 164.82 85.5793C165.04 87.1229 164.739 88.5623 163.917 89.8989C163.427 90.7023 162.461 91.7892 161.019 93.161C159.569 94.5651 158.581 95.6769 158.05 96.498C157.742 96.9841 157.378 97.2573 156.955 97.3175H156.956ZM153.787 102.132C153.628 101.517 153.691 100.907 153.975 100.304C154.259 99.6998 154.696 99.3224 155.283 99.1711C156.151 98.9479 156.552 98.986 157.059 99.13C157.992 99.3958 158.539 100.008 158.749 100.821C159.096 102.163 158.804 103.16 157.153 103.586C156.383 103.784 156.037 103.796 155.327 103.592C154.484 103.332 153.97 102.846 153.787 102.132Z" fill="url(#paint0_linear_928_239066)"/>
<path d="M143.54 129.836C142.136 127.727 139.702 125.434 137.928 123.817C137.365 123.304 136.87 122.859 136.494 122.51" stroke="#D4DEE7" stroke-width="0.734375" stroke-linecap="round" stroke-linejoin="round"/>
<path d="M142.443 116.631C144.92 119.938 146.855 124.245 147.675 128.294" stroke="#D4DEE7" stroke-width="0.734375" stroke-linecap="round" stroke-linejoin="round"/>
<path d="M151.799 126.759C151.938 124.29 151.627 121.259 150.863 118.863C150.83 118.757 150.796 118.653 150.76 118.55C150.731 118.465 150.702 118.383 150.672 118.3C150.633 118.195 150.595 118.09 150.553 117.989C150.534 117.941 150.515 117.892 150.495 117.844C150.427 117.681 150.358 117.521 150.285 117.368C150.252 117.297 150.22 117.23 150.185 117.162C150.092 116.977 149.997 116.799 149.895 116.632" stroke="#D4DEE7" stroke-width="0.734375" stroke-linecap="round" stroke-linejoin="round"/>
<path d="M155.786 125.273C153.861 124.181 152.148 122.627 151.363 120.818C151.363 120.816 151.361 120.815 151.361 120.813" stroke="#D4DEE7" stroke-width="0.734375" stroke-linecap="round" stroke-linejoin="round"/>
<path d="M139.166 131.468C139.921 129.598 140.432 127.651 140.017 125.782C140.017 125.782 140.018 125.782 140.02 125.784C140.111 125.837 142.214 127.035 143.578 125.935C144.974 124.81 145.442 122.367 145.059 120.884" stroke="#D4DEE7" stroke-width="0.734375" stroke-linecap="round" stroke-linejoin="round"/>
<path d="M142.443 116.632C143.41 117.921 144.293 119.364 145.059 120.882C146.026 122.401 147.433 123.744 148.982 123.71C150.53 123.676 151.024 122.325 151.362 120.813" stroke="#D4DEE7" stroke-width="0.734375" stroke-linecap="round" stroke-linejoin="round"/>
<path d="M135.063 132.997C136.062 131.852 136.675 130.332 136.892 128.812C137.215 126.55 136.942 124.75 136.494 122.51C139.595 122.552 142.093 119.699 142.442 116.632C143.512 117.613 149.501 118.952 149.895 116.632C152.923 120.129 157.261 122.539 161.874 123.005" stroke="#D4DEE7" stroke-width="0.734375" stroke-linecap="round" stroke-linejoin="round"/>
<path d="M105.063 107.709C106.468 109.818 108.901 112.111 110.676 113.728C111.238 114.241 111.733 114.686 112.109 115.035" stroke="#D4DEE7" stroke-width="0.734375" stroke-linecap="round" stroke-linejoin="round"/>
<path d="M106.158 120.913C103.682 117.606 101.746 113.299 100.927 109.25" stroke="#D4DEE7" stroke-width="0.734375" stroke-linecap="round" stroke-linejoin="round"/>
<path d="M96.8048 110.786C96.6653 113.255 96.9767 116.287 97.7404 118.682C97.7742 118.788 97.808 118.892 97.8432 118.995C97.8726 119.08 97.902 119.162 97.9314 119.245C97.971 119.35 98.0092 119.455 98.0503 119.556C98.0694 119.605 98.0885 119.653 98.1091 119.701C98.1767 119.864 98.2457 120.025 98.3191 120.177C98.3514 120.248 98.3837 120.315 98.419 120.383C98.5115 120.568 98.607 120.746 98.7083 120.913" stroke="#D4DEE7" stroke-width="0.734375" stroke-linecap="round" stroke-linejoin="round"/>
<path d="M92.8164 112.272C94.7419 113.364 96.4545 114.918 97.2403 116.727C97.2403 116.729 97.2418 116.73 97.2418 116.732" stroke="#D4DEE7" stroke-width="0.734375" stroke-linecap="round" stroke-linejoin="round"/>
<path d="M109.437 106.077C108.682 107.947 108.171 109.894 108.587 111.763C108.587 111.763 108.585 111.763 108.584 111.763C108.493 111.71 106.39 110.511 105.025 111.611C103.63 112.736 103.161 115.179 103.545 116.662" stroke="#D4DEE7" stroke-width="0.734375" stroke-linecap="round" stroke-linejoin="round"/>
<path d="M106.16 120.913C105.194 119.624 104.311 118.181 103.545 116.663C102.578 115.144 101.171 113.802 99.6216 113.835C98.0735 113.869 97.58 115.22 97.2422 116.732" stroke="#D4DEE7" stroke-width="0.734375" stroke-linecap="round" stroke-linejoin="round"/>
<path d="M113.539 104.549C112.54 105.693 111.928 107.213 111.71 108.733C111.387 110.995 111.661 112.796 112.109 115.036C109.008 114.993 106.51 117.847 106.16 120.914C105.091 119.933 99.1013 118.593 98.7076 120.914C95.6791 117.417 91.3419 115.006 86.7285 114.541" stroke="#D4DEE7" stroke-width="0.734375" stroke-linecap="round" stroke-linejoin="round"/>
<path d="M60.256 147.721C59.1192 148.311 58.7329 149.977 59.4761 151.021C60.2193 152.064 61.8996 152.251 62.866 151.411C64.768 149.76 62.4254 146.593 60.256 147.721Z" fill="#77F2A6"/>
<path d="M58.3601 151.262C57.332 150.339 55.5753 150.394 54.6074 151.379" stroke="#77F2A6" stroke-width="0.734375" stroke-miterlimit="10"/>
<path d="M63.5664 147.483C64.0144 146.745 64.5519 145.938 65.3142 145.846C65.6153 145.809 65.9193 145.891 66.2057 146.01C66.8505 146.275 67.4424 146.718 67.9212 147.295" stroke="#77F2A6" stroke-width="0.734375" stroke-miterlimit="10"/>
<path d="M64.2676 149.259C64.8595 148.613 65.823 148.42 66.6881 148.548C67.5546 148.677 68.3507 149.083 69.1306 149.482" stroke="#77F2A6" stroke-width="0.734375" stroke-miterlimit="10"/>
<path d="M64.1201 151.293C65.1952 150.272 66.9827 150.108 68.2267 150.914" stroke="#77F2A6" stroke-width="0.734375" stroke-miterlimit="10"/>
<path d="M58.3717 149.058C56.8809 148.289 54.9216 148.564 53.6981 149.71" stroke="#77F2A6" stroke-width="0.734375" stroke-miterlimit="10"/>
<path d="M59.1519 147.406C58.0283 144.963 55.6137 146.709 54.3564 147.89" stroke="#77F2A6" stroke-width="0.734375" stroke-miterlimit="10"/>
<path d="M61.5384 110.996C60.7997 122.159 60.7556 133.367 61.4063 144.535" stroke="#D4DEE7" stroke-width="0.734375" stroke-linecap="round" stroke-linejoin="round"/>
<path d="M105.212 68.4746C106.501 71.5693 107.791 74.6654 109.081 77.76" stroke="#D4DEE7" stroke-width="0.734375" stroke-linecap="round" stroke-linejoin="round"/>
<path d="M122.194 53.3711C122.432 62.141 122.672 70.9109 122.91 79.6808" stroke="#D4DEE7" stroke-width="0.734375" stroke-linecap="round" stroke-linejoin="round"/>
<path d="M140.131 66.5403C138.068 70.9245 136.004 75.3102 133.94 79.6944" stroke="#D4DEE7" stroke-width="0.734375" stroke-linecap="round" stroke-linejoin="round"/>
<defs>
<linearGradient id="paint0_linear_928_239066" x1="159.365" y1="76.6051" x2="152.337" y2="105.417" gradientUnits="userSpaceOnUse">
<stop stop-color="#F5D48F"/>
<stop offset="1" stop-color="#F1987C"/>
</linearGradient>
</defs>
</svg>
