<svg width="24" height="25" viewBox="0 0 24 25" fill="none" xmlns="http://www.w3.org/2000/svg">
<g clip-path="url(#clip0_928_254537)">
<path d="M24 12.7C24 6.07258 18.6274 0.699951 12 0.699951C5.37262 0.699951 0 6.07258 0 12.7C0 18.6895 4.38825 23.654 10.125 24.5542V16.1687H7.07812V12.7H10.125V10.0562C10.125 7.0487 11.9166 5.38745 14.6576 5.38745C15.9705 5.38745 17.3438 5.62183 17.3438 5.62183V8.57495H15.8306C14.3399 8.57495 13.875 9.49998 13.875 10.449V12.7H17.2031L16.6711 16.1687H13.875V24.5542C19.6117 23.654 24 18.6895 24 12.7Z" fill="#1877F2"/>
<path d="M16.6711 16.1687L17.2031 12.7H13.875V10.449C13.875 9.49989 14.3399 8.57495 15.8306 8.57495H17.3438V5.62183C17.3438 5.62183 15.9705 5.38745 14.6575 5.38745C11.9166 5.38745 10.125 7.0487 10.125 10.0562V12.7H7.07812V16.1687H10.125V24.5542C10.7453 24.6514 11.3722 24.7001 12 24.7C12.6278 24.7001 13.2547 24.6514 13.875 24.5542V16.1687H16.6711Z" fill="white"/>
</g>
<defs>
<clipPath id="clip0_928_254537">
<rect width="24" height="24" fill="white" transform="translate(0 0.699951)"/>
</clipPath>
</defs>
</svg>
