<svg width="20" height="20" viewBox="0 0 20 20" fill="none" xmlns="http://www.w3.org/2000/svg">
<path fill-rule="evenodd" clip-rule="evenodd" d="M1.66602 5.83337C1.66602 5.37314 2.03912 5.00004 2.49935 5.00004H4.99935C5.45958 5.00004 5.83268 5.37314 5.83268 5.83337C5.83268 6.29361 5.45958 6.66671 4.99935 6.66671H2.49935C2.03912 6.66671 1.66602 6.29361 1.66602 5.83337Z" fill="#262626"/>
<path fill-rule="evenodd" clip-rule="evenodd" d="M1.66602 14.1667C1.66602 13.7065 2.03912 13.3334 2.49935 13.3334H7.49935C7.95958 13.3334 8.33268 13.7065 8.33268 14.1667C8.33268 14.627 7.95958 15 7.49935 15H2.49935C2.03912 15 1.66602 14.627 1.66602 14.1667Z" fill="#262626"/>
<path fill-rule="evenodd" clip-rule="evenodd" d="M14.166 14.1667C14.166 13.7065 14.5391 13.3334 14.9993 13.3334H17.4993C17.9596 13.3334 18.3327 13.7065 18.3327 14.1667C18.3327 14.627 17.9596 15 17.4993 15H14.9993C14.5391 15 14.166 14.627 14.166 14.1667Z" fill="#262626"/>
<path fill-rule="evenodd" clip-rule="evenodd" d="M11.666 5.83337C11.666 5.37314 12.0391 5.00004 12.4993 5.00004H17.4993C17.9596 5.00004 18.3327 5.37314 18.3327 5.83337C18.3327 6.29362 17.9596 6.66671 17.4993 6.66671H12.4993C12.0391 6.66671 11.666 6.29361 11.666 5.83337Z" fill="#262626"/>
<path fill-rule="evenodd" clip-rule="evenodd" d="M7.47831 2.70837H7.52039C7.89077 2.70837 8.19997 2.70837 8.45385 2.72568C8.7181 2.74372 8.96768 2.78258 9.20968 2.88282C9.77118 3.11541 10.2173 3.56153 10.4499 4.12306C10.5502 4.36505 10.589 4.61466 10.607 4.87891C10.6243 5.13275 10.6243 5.44194 10.6243 5.81232V5.85442C10.6243 6.22481 10.6243 6.534 10.607 6.78785C10.589 7.0521 10.5502 7.3017 10.4499 7.54369C10.2173 8.10522 9.77118 8.55137 9.20968 8.78396C8.96768 8.88421 8.7181 8.92304 8.45385 8.94104C8.19997 8.95837 7.89078 8.95837 7.5204 8.95837H7.4783C7.10792 8.95837 6.79872 8.95837 6.54488 8.94104C6.28063 8.92304 6.03102 8.88421 5.78903 8.78396C5.22751 8.55137 4.78138 8.10522 4.54879 7.54369C4.44856 7.3017 4.40969 7.0521 4.39166 6.78785C4.37434 6.534 4.37434 6.2248 4.37435 5.85442V5.81233C4.37434 5.44195 4.37434 5.13275 4.39166 4.87891C4.40969 4.61466 4.44856 4.36505 4.54879 4.12306C4.78138 3.56153 5.22751 3.11541 5.78903 2.88282C6.03102 2.78258 6.28063 2.74372 6.54488 2.72568C6.79872 2.70837 7.10792 2.70837 7.47831 2.70837Z" fill="#262626"/>
<path fill-rule="evenodd" clip-rule="evenodd" d="M12.4783 11.0417H12.5204C12.8908 11.0417 13.2 11.0417 13.4538 11.059C13.7181 11.077 13.9677 11.1159 14.2097 11.2161C14.7712 11.4487 15.2174 11.8949 15.4499 12.4564C15.5502 12.6984 15.589 12.948 15.607 13.2122C15.6243 13.466 15.6243 13.7753 15.6243 14.1456V14.1878C15.6243 14.5581 15.6243 14.8674 15.607 15.1212C15.589 15.3855 15.5502 15.635 15.4499 15.877C15.2174 16.4385 14.7712 16.8847 14.2097 17.1173C13.9677 17.2175 13.7181 17.2564 13.4538 17.2744C13.2 17.2917 12.8908 17.2917 12.5204 17.2917H12.4783C12.1079 17.2917 11.7987 17.2917 11.5448 17.2744C11.2806 17.2564 11.031 17.2175 10.789 17.1173C10.2275 16.8847 9.78135 16.4385 9.54877 15.877C9.44852 15.635 9.40968 15.3855 9.39168 15.1212C9.37435 14.8674 9.37435 14.5581 9.37435 14.1878V14.1456C9.37435 13.7753 9.37435 13.466 9.39168 13.2122C9.40968 12.948 9.44852 12.6984 9.54877 12.4564C9.78135 11.8949 10.2275 11.4487 10.789 11.2161C11.031 11.1159 11.2806 11.077 11.5448 11.059C11.7987 11.0417 12.1079 11.0417 12.4783 11.0417Z" fill="#262626"/>
</svg>
