<svg width="24" height="24" viewBox="0 0 24 24" fill="none" xmlns="http://www.w3.org/2000/svg">
<path d="M5.90941 11.7445C6.32059 11.7945 6.69448 11.5018 6.74451 11.0906C6.79454 10.6794 6.50177 10.3055 6.09059 10.2555L6 11L5.90941 11.7445ZM2.71536 8.7747C2.59093 8.37961 2.16978 8.16021 1.7747 8.28464C1.37962 8.40907 1.16021 8.83022 1.28464 9.2253L2 9L2.71536 8.7747ZM5.90941 16.7445C6.32059 16.7945 6.69448 16.5018 6.74451 16.0906C6.79454 15.6794 6.50177 15.3055 6.09059 15.2555L6 16L5.90941 16.7445ZM2.71536 13.7747C2.59093 13.3796 2.16978 13.1602 1.7747 13.2846C1.37962 13.4091 1.16021 13.8302 1.28464 14.2253L2 14L2.71536 13.7747ZM5.90941 21.7445C6.32059 21.7945 6.69448 21.5018 6.74451 21.0906C6.79454 20.6794 6.50177 20.3055 6.09059 20.2555L6 21L5.90941 21.7445ZM2 19H1.25V19.1153L1.28464 19.2253L2 19ZM14.25 6C14.25 6.41421 14.5858 6.75 15 6.75C15.4142 6.75 15.75 6.41421 15.75 6H15H14.25ZM22 11H21.25C21.25 10.9212 21.2998 10.9888 21.048 11.172C20.8126 11.3433 20.4237 11.5288 19.8756 11.6974C18.7887 12.0318 17.2415 12.25 15.5 12.25V13V13.75C17.3483 13.75 19.0511 13.5205 20.3168 13.131C20.945 12.9377 21.508 12.6923 21.9304 12.385C22.3364 12.0896 22.75 11.6311 22.75 11H22ZM15.5 13V12.25C13.7585 12.25 12.2113 12.0318 11.1244 11.6974C10.5763 11.5288 10.1874 11.3433 9.95201 11.172C9.70016 10.9888 9.75 10.9212 9.75 11H9H8.25C8.25 11.6311 8.66361 12.0896 9.0696 12.385C9.49201 12.6923 10.055 12.9377 10.6832 13.131C11.9489 13.5205 13.6517 13.75 15.5 13.75V13ZM9 11H9.75C9.75 11.0788 9.70016 11.0112 9.95201 10.828C10.1874 10.6567 10.5763 10.4712 11.1244 10.3026C12.2113 9.96819 13.7585 9.75 15.5 9.75V9V8.25C13.6517 8.25 11.9489 8.47953 10.6832 8.86895C10.055 9.06225 9.49201 9.30772 9.0696 9.61501C8.66361 9.91036 8.25 10.3689 8.25 11H9ZM15.5 9V9.75C17.2415 9.75 18.7887 9.96819 19.8756 10.3026C20.4237 10.4712 20.8126 10.6567 21.048 10.828C21.2998 11.0112 21.25 11.0788 21.25 11H22H22.75C22.75 10.3689 22.3364 9.91036 21.9304 9.61501C21.508 9.30772 20.945 9.06225 20.3168 8.86895C19.0511 8.47953 17.3483 8.25 15.5 8.25V9ZM22 15.5H21.25C21.25 15.4212 21.2998 15.4888 21.048 15.672C20.8126 15.8433 20.4237 16.0288 19.8756 16.1974C18.7887 16.5318 17.2416 16.75 15.5 16.75V17.5V18.25C17.3483 18.25 19.0511 18.0205 20.3168 17.6311C20.945 17.4378 21.508 17.1923 21.9304 16.885C22.3364 16.5896 22.75 16.1311 22.75 15.5H22ZM15.5 17.5V16.75C13.7584 16.75 12.2112 16.5318 11.1244 16.1974C10.5763 16.0288 10.1874 15.8433 9.95201 15.672C9.70017 15.4888 9.75 15.4212 9.75 15.5H9H8.25C8.25 16.1311 8.66359 16.5896 9.06958 16.885C9.49199 17.1923 10.055 17.4378 10.6832 17.6311C11.9489 18.0205 13.6517 18.25 15.5 18.25V17.5ZM22 11H21.25V19.8H22H22.75V11H22ZM22 19.8H21.25C21.25 19.8 21.2501 19.8025 21.2481 19.8094C21.2459 19.8168 21.2402 19.8321 21.2261 19.8553C21.1967 19.9041 21.1359 19.9785 21.0206 20.0707C20.7856 20.2588 20.3995 20.4612 19.8558 20.6452C18.7758 21.0107 17.2358 21.25 15.5 21.25V22V22.75C17.3541 22.75 19.0641 22.4968 20.3367 22.066C20.9692 21.852 21.535 21.5803 21.9578 21.2419C22.3734 20.9093 22.75 20.4271 22.75 19.8H22ZM15.5 22V21.25C13.7642 21.25 12.2242 21.0107 11.1442 20.6452C10.6005 20.4612 10.2144 20.2588 9.97939 20.0707C9.86413 19.9785 9.80333 19.9041 9.77387 19.8553C9.75983 19.8321 9.75415 19.8168 9.75192 19.8094C9.74985 19.8025 9.75 19.8 9.75 19.8H9H8.25C8.25 20.4271 8.62657 20.9093 9.0422 21.2419C9.46504 21.5803 10.0308 21.852 10.6633 22.066C11.9359 22.4968 13.6459 22.75 15.5 22.75V22ZM9 19.8H9.75V11H9H8.25V19.8H9ZM15 4H14.25C14.25 3.92121 14.2998 3.98878 14.048 4.17199C13.8126 4.34326 13.4237 4.52875 12.8756 4.69738C11.7887 5.03181 10.2415 5.25 8.5 5.25V6V6.75C10.3483 6.75 12.0511 6.52047 13.3168 6.13105C13.945 5.93775 14.508 5.69227 14.9304 5.38499C15.3364 5.08964 15.75 4.63108 15.75 4H15ZM8.5 6V5.25C6.75846 5.25 5.21128 5.03181 4.12437 4.69738C3.57633 4.52875 3.18743 4.34326 2.95201 4.17199C2.70016 3.98878 2.75 3.92121 2.75 4H2H1.25C1.25 4.63108 1.66361 5.08964 2.0696 5.38499C2.49201 5.69227 3.05501 5.93775 3.68324 6.13105C4.94887 6.52047 6.65169 6.75 8.5 6.75V6ZM2 4H2.75C2.75 4.07879 2.70016 4.01122 2.95201 3.82801C3.18743 3.65674 3.57633 3.47125 4.12437 3.30262C5.21128 2.96819 6.75846 2.75 8.5 2.75V2V1.25C6.65169 1.25 4.94887 1.47953 3.68324 1.86895C3.05501 2.06225 2.49201 2.30773 2.0696 2.61501C1.66361 2.91036 1.25 3.36892 1.25 4H2ZM8.5 2V2.75C10.2415 2.75 11.7887 2.96819 12.8756 3.30262C13.4237 3.47125 13.8126 3.65674 14.048 3.82801C14.2998 4.01122 14.25 4.07879 14.25 4H15H15.75C15.75 3.36892 15.3364 2.91036 14.9304 2.61501C14.508 2.30773 13.945 2.06225 13.3168 1.86895C12.0511 1.47953 10.3483 1.25 8.5 1.25V2ZM6 11L6.09059 10.2555C5.18394 10.1452 4.35948 9.95168 3.73836 9.67076C3.10182 9.38287 2.80644 9.06388 2.71536 8.7747L2 9L1.28464 9.2253C1.56347 10.1106 2.32218 10.6765 3.12022 11.0375C3.93367 11.4054 4.92425 11.6246 5.90941 11.7445L6 11ZM6 16L6.09059 15.2555C5.18394 15.1452 4.35948 14.9517 3.73836 14.6708C3.10182 14.3829 2.80644 14.0639 2.71536 13.7747L2 14L1.28464 14.2253C1.56347 15.1106 2.32218 15.6765 3.12022 16.0375C3.93367 16.4054 4.92425 16.6246 5.90941 16.7445L6 16ZM6 21L6.09059 20.2555C5.18394 20.1452 4.35948 19.9517 3.73836 19.6708C3.10182 19.3829 2.80644 19.0639 2.71536 18.7747L2 19L1.28464 19.2253C1.56347 20.1106 2.32218 20.6765 3.12022 21.0375C3.93367 21.4054 4.92425 21.6246 5.90941 21.7445L6 21ZM2 19H2.75V4H2H1.25V19H2ZM15 6H15.75V4H15H14.25V6H15Z" fill="#B6B3BC"/>
</svg>
