<svg width="20" height="21" viewBox="0 0 20 21" fill="none" xmlns="http://www.w3.org/2000/svg">
<path d="M14.9993 17.1666C14.9993 18.0871 12.7608 18.8333 9.99935 18.8333C7.23792 18.8333 4.99935 18.0871 4.99935 17.1666M12.0827 7.99996C12.0827 9.15054 11.1499 10.0833 9.99935 10.0833C8.84877 10.0833 7.91602 9.15054 7.91602 7.99996C7.91602 6.84937 8.84877 5.91663 9.99935 5.91663C11.1499 5.91663 12.0827 6.84937 12.0827 7.99996ZM11.0472 15.078C10.7661 15.3486 10.3904 15.5 9.99952 15.5C9.60852 15.5 9.23285 15.3486 8.95177 15.078C6.37793 12.584 2.92867 9.79788 4.61077 5.75307C5.52027 3.56606 7.70347 2.16663 9.99952 2.16663C12.2955 2.16663 14.4787 3.56607 15.3882 5.75307C17.0682 9.79279 13.6273 12.5925 11.0472 15.078Z" stroke="#00B140" stroke-width="1.5" stroke-linecap="round"/>
</svg>
