<svg width="24" height="25" viewBox="0 0 24 25" fill="none" xmlns="http://www.w3.org/2000/svg">
<g clip-path="url(#clip0_928_254546)">
<path d="M18.375 0.399902H5.625C2.5184 0.399902 0 2.9183 0 6.0249V18.7749C0 21.8815 2.5184 24.3999 5.625 24.3999H18.375C21.4816 24.3999 24 21.8815 24 18.7749V6.0249C24 2.9183 21.4816 0.399902 18.375 0.399902Z" fill="url(#paint0_radial_928_254546)"/>
<path d="M18.375 0.399902H5.625C2.5184 0.399902 0 2.9183 0 6.0249V18.7749C0 21.8815 2.5184 24.3999 5.625 24.3999H18.375C21.4816 24.3999 24 21.8815 24 18.7749V6.0249C24 2.9183 21.4816 0.399902 18.375 0.399902Z" fill="url(#paint1_radial_928_254546)"/>
<path d="M12.0008 3.0249C9.45478 3.0249 9.13519 3.03606 8.13525 3.08153C7.13719 3.12728 6.45591 3.28525 5.85984 3.51709C5.24316 3.75653 4.72013 4.07687 4.19906 4.59812C3.67753 5.11928 3.35719 5.64231 3.117 6.25871C2.8845 6.85496 2.72634 7.53653 2.68144 8.53412C2.63672 9.53415 2.625 9.85384 2.625 12.4C2.625 14.9462 2.63625 15.2647 2.68163 16.2647C2.72756 17.2627 2.88553 17.944 3.11719 18.5401C3.35681 19.1567 3.67716 19.6798 4.19841 20.2008C4.71938 20.7224 5.24241 21.0435 5.85862 21.2829C6.45516 21.5147 7.13653 21.6727 8.13441 21.7185C9.13444 21.7639 9.45375 21.7751 11.9997 21.7751C14.5461 21.7751 14.8646 21.7639 15.8646 21.7185C16.8626 21.6727 17.5447 21.5147 18.1412 21.2829C18.7576 21.0435 19.2799 20.7224 19.8007 20.2008C20.3223 19.6798 20.6425 19.1567 20.8828 18.5403C21.1133 17.944 21.2715 17.2625 21.3184 16.2648C21.3633 15.2649 21.375 14.9462 21.375 12.4C21.375 9.85384 21.3633 9.53434 21.3184 8.53431C21.2715 7.53625 21.1133 6.85506 20.8828 6.259C20.6425 5.64231 20.3223 5.11928 19.8007 4.59812C19.2793 4.07668 18.7578 3.75634 18.1406 3.51718C17.543 3.28525 16.8613 3.12718 15.8632 3.08153C14.8632 3.03606 14.5448 3.0249 11.9979 3.0249H12.0008ZM11.1598 4.71437C11.4095 4.714 11.688 4.71437 12.0008 4.71437C14.5041 4.71437 14.8007 4.72337 15.7892 4.76828C16.7032 4.81009 17.1994 4.96281 17.5298 5.09115C17.9674 5.26103 18.2793 5.46418 18.6072 5.7924C18.9353 6.12053 19.1384 6.433 19.3088 6.87053C19.4371 7.20053 19.59 7.69665 19.6316 8.61071C19.6765 9.59903 19.6863 9.89584 19.6863 12.3978C19.6863 14.8998 19.6765 15.1967 19.6316 16.185C19.5898 17.099 19.4371 17.5952 19.3088 17.9252C19.1389 18.3628 18.9353 18.6743 18.6072 19.0022C18.2791 19.3304 17.9676 19.5334 17.5298 19.7034C17.1997 19.8323 16.7032 19.9847 15.7892 20.0265C14.8009 20.0714 14.5041 20.0811 12.0008 20.0811C9.49753 20.0811 9.20081 20.0714 8.21259 20.0265C7.29853 19.9843 6.80241 19.8316 6.47166 19.7032C6.03422 19.5332 5.72166 19.3302 5.39353 19.0021C5.06541 18.6739 4.86234 18.3622 4.692 17.9245C4.56366 17.5944 4.41075 17.0983 4.36913 16.1842C4.32422 15.1959 4.31522 14.8991 4.31522 12.3955C4.31522 9.8919 4.32422 9.59668 4.36913 8.60837C4.41094 7.69431 4.56366 7.19818 4.692 6.86771C4.86197 6.43018 5.06541 6.11771 5.39363 5.78959C5.72184 5.46146 6.03422 5.25831 6.47175 5.08806C6.80222 4.95915 7.29853 4.80681 8.21259 4.76481C9.07744 4.72571 9.41259 4.714 11.1598 4.71203V4.71437ZM17.0052 6.271C16.3841 6.271 15.8802 6.77443 15.8802 7.39562C15.8802 8.01672 16.3841 8.52062 17.0052 8.52062C17.6263 8.52062 18.1302 8.01672 18.1302 7.39562C18.1302 6.77453 17.6263 6.27062 17.0052 6.27062V6.271ZM12.0008 7.58547C9.34209 7.58547 7.18641 9.74115 7.18641 12.4C7.18641 15.0588 9.34209 17.2135 12.0008 17.2135C14.6597 17.2135 16.8146 15.0588 16.8146 12.4C16.8146 9.74125 14.6595 7.58547 12.0007 7.58547H12.0008ZM12.0008 9.27493C13.7267 9.27493 15.1259 10.674 15.1259 12.4C15.1259 14.1258 13.7267 15.5251 12.0008 15.5251C10.275 15.5251 8.87588 14.1258 8.87588 12.4C8.87588 10.674 10.2749 9.27493 12.0008 9.27493Z" fill="white"/>
</g>
<defs>
<radialGradient id="paint0_radial_928_254546" cx="0" cy="0" r="1" gradientUnits="userSpaceOnUse" gradientTransform="translate(6.375 26.2484) rotate(-90) scale(23.7858 22.1227)">
<stop stop-color="#FFDD55"/>
<stop offset="0.1" stop-color="#FFDD55"/>
<stop offset="0.5" stop-color="#FF543E"/>
<stop offset="1" stop-color="#C837AB"/>
</radialGradient>
<radialGradient id="paint1_radial_928_254546" cx="0" cy="0" r="1" gradientUnits="userSpaceOnUse" gradientTransform="translate(-4.02009 2.12875) rotate(78.681) scale(10.6324 43.827)">
<stop stop-color="#3771C8"/>
<stop offset="0.128" stop-color="#3771C8"/>
<stop offset="1" stop-color="#6600FF" stop-opacity="0"/>
</radialGradient>
<clipPath id="clip0_928_254546">
<rect width="24" height="24" fill="white" transform="translate(0 0.399902)"/>
</clipPath>
</defs>
</svg>
