<svg width="21" height="20" viewBox="0 0 21 20" fill="none" xmlns="http://www.w3.org/2000/svg">
<path d="M6.84994 9.99996H11.8499M6.84994 6.66663H9.34994M7.68327 16.6666C8.55859 17.3914 9.61202 17.8531 10.8195 17.9323C11.7709 17.9947 12.7642 17.9946 13.7137 17.9323C14.0406 17.9109 14.397 17.8339 14.7039 17.7091C15.0454 17.5704 15.2162 17.501 15.303 17.5115C15.3898 17.522 15.5157 17.6136 15.7675 17.7969C16.2115 18.12 16.7709 18.352 17.6004 18.3321C18.0198 18.322 18.2295 18.317 18.3234 18.159C18.4173 18.001 18.3004 17.7824 18.0664 17.345C17.7421 16.7385 17.5366 16.044 17.848 15.4876C18.3844 14.6929 18.8399 13.7517 18.9064 12.7352C18.9422 12.189 18.9422 11.6234 18.9064 11.0772C18.8621 10.3999 18.6977 9.75604 18.4343 9.16663M10.8874 14.5723C13.8504 14.3771 16.2106 12.0057 16.4048 9.02863C16.4428 8.44604 16.4428 7.84272 16.4048 7.26012C16.2106 4.28303 13.8504 1.91163 10.8874 1.7165C9.8766 1.64993 8.82121 1.65007 7.81243 1.7165C4.84946 1.91163 2.48931 4.28303 2.2951 7.26012C2.2571 7.84272 2.2571 8.44604 2.2951 9.02863C2.36583 10.113 2.84987 11.1169 3.4197 11.9646C3.75057 12.558 3.53221 13.2988 3.18758 13.9458C2.9391 14.4123 2.81486 14.6455 2.91462 14.814C3.01437 14.9825 3.2372 14.988 3.68286 14.9987C4.5642 15.02 5.1585 14.7724 5.63025 14.4278C5.8978 14.2323 6.03159 14.1345 6.12379 14.1234C6.21599 14.1121 6.39743 14.1861 6.76028 14.3342C7.08638 14.4673 7.46504 14.5494 7.81243 14.5723C8.82121 14.6387 9.8766 14.6388 10.8874 14.5723Z" stroke="#727272" stroke-linecap="round" stroke-linejoin="round"/>
</svg>
