<svg width="21" height="20" viewBox="0 0 21 20" fill="none" xmlns="http://www.w3.org/2000/svg">
<path d="M13.4167 15C13.4167 16.6109 12.1108 17.9167 10.5 17.9167C8.88917 17.9167 7.58333 16.6109 7.58333 15M16.5259 15H4.47406C3.65996 15 3 14.34 3 13.526C3 13.135 3.1553 12.7601 3.43174 12.4836L3.93443 11.981C4.40327 11.5121 4.66667 10.8762 4.66667 10.2132V7.91671C4.66667 4.69505 7.27834 2.08337 10.5 2.08337C13.7217 2.08337 16.3333 4.69504 16.3333 7.91671V10.2132C16.3333 10.8762 16.5967 11.5121 17.0656 11.981L17.5682 12.4836C17.8447 12.7601 18 13.135 18 13.526C18 14.34 17.34 15 16.5259 15Z" stroke="#727272" stroke-linecap="round" stroke-linejoin="round"/>
</svg>
