<svg width="695" height="160" viewBox="0 0 695 160" fill="none" xmlns="http://www.w3.org/2000/svg">
<g clip-path="url(#clip0_14_6322)">
<path d="M53.15 37.79C67.81 37.79 80.3299 42.95 90.7299 53.27C101.12 63.59 106.32 76.08 106.32 90.75V157.16H79.6199V90.75C79.6199 83.42 77.0399 77.17 71.88 72.02C66.72 66.86 60.51 64.28 53.26 64.28C46.01 64.28 39.7999 66.86 34.6399 72.02C29.4799 77.17 26.9 83.42 26.9 90.75V157.16H0.199951V38.47C8.86995 38.47 15.83 41.83 21.07 48.56C30.64 41.38 41.3299 37.79 53.16 37.79H53.15Z" fill="#00DC4D"/>
<path d="M399.36 0.110107L398.46 1.90011V157.17C391.13 157.17 384.84 154.56 379.61 149.32C374.37 144.09 371.76 137.8 371.76 130.47V48.1201L334.73 112.29L319.25 138.99L303.77 112.29L266.75 48.1201V47.9001V130.47C266.75 137.8 264.17 144.09 259.01 149.32C253.85 154.56 247.53 157.17 240.05 157.17V1.90011L239.15 0.110107H269.89L319.25 85.6001L368.62 0.110107H399.36Z" fill="white"/>
<path d="M428.75 54.4C440.72 42.44 455.19 36.46 472.17 36.46C489.15 36.46 503.62 42.44 515.59 54.4C527.55 66.37 533.54 80.8 533.54 97.71C533.54 114.62 527.55 129.09 515.59 141.13C503.62 153.17 489.15 159.19 472.17 159.19C455.19 159.19 440.72 153.17 428.75 141.13C416.78 129.09 410.8 114.62 410.8 97.71C410.8 80.8 416.78 66.37 428.75 54.4ZM447.6 122.28C454.33 129.08 462.48 132.48 472.06 132.48C481.64 132.48 489.82 129.08 496.63 122.28C503.43 115.47 506.84 107.28 506.84 97.71C506.84 88.14 503.43 79.99 496.63 73.26C489.82 66.53 481.63 63.16 472.06 63.16C465.77 63.16 459.98 64.7 454.67 67.76C449.36 70.83 445.17 75.02 442.11 80.33C439.04 85.64 437.51 91.43 437.51 97.71C437.51 107.28 440.88 115.47 447.61 122.28H447.6Z" fill="white"/>
<path d="M598.16 37.79C612.82 37.79 625.34 42.95 635.74 53.27C646.13 63.59 651.33 76.08 651.33 90.75V157.16H624.63V90.75C624.63 83.42 622.05 77.17 616.89 72.02C611.73 66.86 605.52 64.28 598.27 64.28C591.02 64.28 584.81 66.86 579.65 72.02C574.49 77.17 571.91 83.42 571.91 90.75V157.16H545.21V38.47C553.88 38.47 560.84 41.83 566.08 48.56C575.65 41.38 586.34 37.79 598.17 37.79H598.16Z" fill="white"/>
<path d="M681.62 29.94C677.58 30.54 673.88 29.64 670.51 27.25C667.14 24.86 665.12 21.61 664.45 17.49C663.78 13.38 664.67 9.64001 667.14 6.28001C669.61 2.91001 672.86 0.890014 676.9 0.220014C680.94 -0.449986 684.64 0.440014 688 2.91001C691.37 5.38001 693.42 8.63001 694.17 12.67C694.62 15.36 694.36 17.94 693.38 20.41C692.41 22.88 690.87 24.97 688.78 26.69C686.68 28.41 684.29 29.49 681.6 29.94H681.62ZM692.61 157.16C685.28 157.16 679 154.58 673.76 149.42C668.53 144.26 665.91 137.94 665.91 130.47V38.47H692.61V157.16Z" fill="white"/>
<path d="M171.84 157.16C157.18 157.16 144.66 152 134.26 141.68C123.87 131.36 118.67 118.87 118.67 104.2V37.79H145.37V104.2C145.37 111.53 147.95 117.78 153.11 122.93C158.27 128.09 164.48 130.67 171.73 130.67C178.98 130.67 185.19 128.09 190.35 122.93C195.51 117.78 198.09 111.53 198.09 104.2V37.79H224.79V156.48C216.12 156.48 209.16 153.12 203.92 146.39C194.35 153.57 183.66 157.16 171.83 157.16H171.84Z" fill="#00DC4D"/>
</g>
<defs>
<clipPath id="clip0_14_6322">
<rect width="694.2" height="159.18" fill="white" transform="translate(0.199951)"/>
</clipPath>
</defs>
</svg>
