<svg width="695" height="160" viewBox="0 0 695 160" fill="none" xmlns="http://www.w3.org/2000/svg">
<g clip-path="url(#clip0_14_6321)">
<path d="M52.95 37.79C67.61 37.79 80.13 42.95 90.53 53.27C100.92 63.59 106.12 76.08 106.12 90.75V157.16H79.42V90.75C79.42 83.42 76.84 77.17 71.68 72.02C66.52 66.86 60.31 64.28 53.06 64.28C45.81 64.28 39.6 66.86 34.44 72.02C29.28 77.17 26.7 83.42 26.7 90.75V157.16H0V38.47C8.67 38.47 15.63 41.83 20.87 48.56C30.44 41.38 41.13 37.79 52.96 37.79H52.95Z" fill="#00DC4D"/>
<path d="M399.16 0.110107L398.26 1.90011V157.17C390.93 157.17 384.64 154.56 379.41 149.32C374.17 144.09 371.56 137.8 371.56 130.47V48.1201L334.53 112.29L319.05 138.99L303.57 112.29L266.55 48.1201V47.9001V130.47C266.55 137.8 263.97 144.09 258.81 149.32C253.65 154.56 247.33 157.17 239.85 157.17V1.90011L238.95 0.110107H269.69L319.05 85.6001L368.42 0.110107H399.16Z" fill="black"/>
<path d="M428.55 54.4C440.52 42.44 454.99 36.46 471.97 36.46C488.95 36.46 503.42 42.44 515.39 54.4C527.35 66.37 533.34 80.8 533.34 97.71C533.34 114.62 527.35 129.09 515.39 141.13C503.42 153.17 488.95 159.19 471.97 159.19C454.99 159.19 440.52 153.17 428.55 141.13C416.58 129.09 410.6 114.62 410.6 97.71C410.6 80.8 416.58 66.37 428.55 54.4ZM447.4 122.28C454.13 129.08 462.28 132.48 471.86 132.48C481.44 132.48 489.62 129.08 496.43 122.28C503.23 115.47 506.64 107.28 506.64 97.71C506.64 88.14 503.23 79.99 496.43 73.26C489.62 66.53 481.43 63.16 471.86 63.16C465.57 63.16 459.78 64.7 454.47 67.76C449.16 70.83 444.97 75.02 441.91 80.33C438.84 85.64 437.31 91.43 437.31 97.71C437.31 107.28 440.68 115.47 447.41 122.28H447.4Z" fill="black"/>
<path d="M597.96 37.79C612.62 37.79 625.14 42.95 635.54 53.27C645.93 63.59 651.13 76.08 651.13 90.75V157.16H624.43V90.75C624.43 83.42 621.85 77.17 616.69 72.02C611.53 66.86 605.32 64.28 598.07 64.28C590.82 64.28 584.61 66.86 579.45 72.02C574.29 77.17 571.71 83.42 571.71 90.75V157.16H545.01V38.47C553.68 38.47 560.64 41.83 565.88 48.56C575.45 41.38 586.14 37.79 597.97 37.79H597.96Z" fill="black"/>
<path d="M681.42 29.94C677.38 30.54 673.68 29.64 670.31 27.25C666.94 24.86 664.92 21.61 664.25 17.49C663.58 13.38 664.47 9.64001 666.94 6.28001C669.41 2.91001 672.66 0.890014 676.7 0.220014C680.74 -0.449986 684.44 0.440014 687.8 2.91001C691.17 5.38001 693.22 8.63001 693.97 12.67C694.42 15.36 694.16 17.94 693.18 20.41C692.21 22.88 690.67 24.97 688.58 26.69C686.48 28.41 684.09 29.49 681.4 29.94H681.42ZM692.41 157.16C685.08 157.16 678.8 154.58 673.56 149.42C668.33 144.26 665.71 137.94 665.71 130.47V38.47H692.41V157.16Z" fill="black"/>
<path d="M171.64 157.16C156.98 157.16 144.46 152 134.06 141.68C123.67 131.36 118.47 118.87 118.47 104.2V37.79H145.17V104.2C145.17 111.53 147.75 117.78 152.91 122.93C158.07 128.09 164.28 130.67 171.53 130.67C178.78 130.67 184.99 128.09 190.15 122.93C195.31 117.78 197.89 111.53 197.89 104.2V37.79H224.59V156.48C215.92 156.48 208.96 153.12 203.72 146.39C194.15 153.57 183.46 157.16 171.63 157.16H171.64Z" fill="#00DC4D"/>
</g>
<defs>
<clipPath id="clip0_14_6321">
<rect width="694.2" height="159.18" fill="white"/>
</clipPath>
</defs>
</svg>
