<svg width="21" height="20" viewBox="0 0 21 20" fill="none" xmlns="http://www.w3.org/2000/svg">
<path d="M18.1729 14.667C17.7587 14.667 17.4229 15.0028 17.4229 15.417C17.4229 15.8312 17.7587 16.167 18.1729 16.167V15.417V14.667ZM19.7399 14.4746L19.1576 14.0019L19.1575 14.002L19.7399 14.4746ZM18.5823 12.0108L18.1247 12.605L18.1247 12.6051L18.5823 12.0108ZM16.7621 10.5034C16.3496 10.4661 15.9849 10.7702 15.9476 11.1828C15.9103 11.5953 16.2145 11.96 16.627 11.9973L16.6946 11.2503L16.7621 10.5034ZM15.8612 8.83366C15.447 8.83366 15.1112 9.16945 15.1112 9.58366C15.1112 9.99787 15.447 10.3337 15.8612 10.3337V9.58366V8.83366ZM15.8612 4.66699C15.447 4.66699 15.1112 5.00278 15.1112 5.41699C15.1112 5.83121 15.447 6.16699 15.8612 6.16699V5.41699V4.66699ZM3.54955 16.167C3.96376 16.167 4.29955 15.8312 4.29955 15.417C4.29955 15.0028 3.96376 14.667 3.54955 14.667V15.417V16.167ZM1.98253 14.4746L2.56489 14.002L2.56487 14.0019L1.98253 14.4746ZM3.14012 12.0108L3.59769 12.6051L3.59772 12.605L3.14012 12.0108ZM5.09547 11.9973C5.508 11.96 5.81218 11.5953 5.77487 11.1828C5.73756 10.7702 5.37289 10.4661 4.96036 10.5034L5.02792 11.2503L5.09547 11.9973ZM5.44458 10.3337C5.8588 10.3337 6.19458 9.99787 6.19458 9.58366C6.19458 9.16945 5.8588 8.83366 5.44458 8.83366V9.58366V10.3337ZM5.44458 6.16699C5.8588 6.16699 6.19458 5.83121 6.19458 5.41699C6.19458 5.00278 5.8588 4.66699 5.44458 4.66699V5.41699V6.16699ZM7.59748 13.01L7.99191 13.6479L7.99192 13.6479L7.59748 13.01ZM5.87323 15.9568L6.40071 15.4237L6.4007 15.4236L5.87323 15.9568ZM15.8487 15.9568L15.3213 15.4237L15.8487 15.9568ZM14.1245 13.01L13.7301 13.6479L13.7301 13.6479L14.1245 13.01ZM18.1729 15.417V16.167C19.1471 16.167 19.8366 15.5457 20.3223 14.9472L19.7399 14.4746L19.1575 14.002C18.7514 14.5025 18.4475 14.667 18.1729 14.667V15.417ZM19.7399 14.4746L20.3222 14.9472C20.6521 14.5407 20.8118 14.0865 20.7719 13.6139C20.7339 13.1648 20.5236 12.7961 20.3063 12.5211C19.8981 12.0043 19.2492 11.5777 19.0399 11.4166L18.5823 12.0108L18.1247 12.6051C18.4871 12.8841 18.8734 13.127 19.1293 13.4509C19.2441 13.5962 19.273 13.6906 19.2772 13.7402C19.2794 13.7661 19.2841 13.846 19.1576 14.0019L19.7399 14.4746ZM18.5823 12.0108L19.0399 11.4166C18.3519 10.8867 17.5691 10.5764 16.7621 10.5034L16.6946 11.2503L16.627 11.9973C17.1357 12.0433 17.6506 12.2399 18.1247 12.605L18.5823 12.0108ZM15.8612 9.58366V10.3337C17.426 10.3337 18.6946 9.06513 18.6946 7.50033H17.9446H17.1946C17.1946 8.2367 16.5976 8.83366 15.8612 8.83366V9.58366ZM17.9446 7.50033H18.6946C18.6946 5.93552 17.426 4.66699 15.8612 4.66699V5.41699V6.16699C16.5976 6.16699 17.1946 6.76395 17.1946 7.50033H17.9446ZM3.54955 15.417V14.667C3.27492 14.667 2.97108 14.5025 2.56489 14.002L1.98253 14.4746L1.40017 14.9472C1.88587 15.5457 2.57533 16.167 3.54955 16.167V15.417ZM1.98253 14.4746L2.56487 14.0019C2.43834 13.846 2.44304 13.7661 2.44523 13.7402C2.44942 13.6907 2.47837 13.5962 2.59314 13.4509C2.84905 13.127 3.23534 12.8841 3.59769 12.6051L3.14012 12.0108L2.68254 11.4166C2.47325 11.5777 1.82431 12.0044 1.41612 12.5211C1.19884 12.7961 0.988522 13.1647 0.950563 13.6138C0.910609 14.0865 1.07029 14.5407 1.4002 14.9472L1.98253 14.4746ZM3.14012 12.0108L3.59772 12.605C4.07186 12.2399 4.58675 12.0433 5.09547 11.9973L5.02792 11.2503L4.96036 10.5034C4.15339 10.5764 3.37059 10.8867 2.68252 11.4166L3.14012 12.0108ZM5.44458 9.58366V8.83366C4.7082 8.83366 4.11125 8.2367 4.11125 7.50033H3.36125H2.61125C2.61125 9.06513 3.87978 10.3337 5.44458 10.3337V9.58366ZM3.36125 7.50033H4.11125C4.11125 6.76395 4.7082 6.16699 5.44458 6.16699V5.41699V4.66699C3.87978 4.66699 2.61125 5.93552 2.61125 7.50033H3.36125ZM7.59748 13.01L7.20304 12.3721C6.85841 12.5852 5.95008 13.0623 5.37149 13.6504C5.07243 13.9544 4.76047 14.3819 4.70337 14.9244C4.64184 15.5089 4.89217 16.0412 5.34575 16.49L5.87323 15.9568L6.4007 15.4236C6.1744 15.1998 6.19388 15.0933 6.19513 15.0814C6.20081 15.0275 6.24524 14.9011 6.44077 14.7024C6.85138 14.285 7.48506 13.9613 7.99191 13.6479L7.59748 13.01ZM5.87323 15.9568L5.34574 16.49C6.07451 17.211 6.99388 17.834 8.20733 17.834V17.084V16.334C7.5606 16.334 7.00041 16.017 6.40071 15.4237L5.87323 15.9568ZM8.20733 17.084V17.834H13.5147V17.084V16.334H8.20733V17.084ZM13.5147 17.084V17.834C14.7281 17.834 15.6475 17.211 16.3762 16.49L15.8487 15.9568L15.3213 15.4237C14.7215 16.017 14.1614 16.334 13.5147 16.334V17.084ZM15.8487 15.9568L16.3762 16.49C16.8298 16.0412 17.0801 15.5089 17.0186 14.9244C16.9615 14.3819 16.6495 13.9544 16.3505 13.6504C15.7719 13.0623 14.8636 12.5852 14.5189 12.3721L14.1245 13.01L13.7301 13.6479C14.2369 13.9613 14.8706 14.285 15.2812 14.7024C15.4767 14.9011 15.5212 15.0275 15.5268 15.0814C15.5281 15.0933 15.5476 15.1998 15.3213 15.4237L15.8487 15.9568ZM14.1245 13.01L14.5189 12.3721C12.2805 10.988 9.44144 10.9879 7.20303 12.3721L7.59748 13.01L7.99192 13.6479C9.74688 12.5627 11.975 12.5627 13.7301 13.6479L14.1245 13.01ZM13.7777 6.66667H13.0277C13.0277 7.86329 12.0576 8.83333 10.861 8.83333V9.58333V10.3333C12.886 10.3333 14.5277 8.69171 14.5277 6.66667H13.7777ZM10.861 9.58333V8.83333C9.66436 8.83333 8.69431 7.86328 8.69431 6.66667H7.94431H7.19431C7.19431 8.69172 8.83595 10.3333 10.861 10.3333V9.58333ZM7.94431 6.66667H8.69431C8.69431 5.47005 9.66436 4.5 10.861 4.5V3.75V3C8.83595 3 7.19431 4.64161 7.19431 6.66667H7.94431ZM10.861 3.75V4.5C12.0576 4.5 13.0277 5.47005 13.0277 6.66667H13.7777H14.5277C14.5277 4.64162 12.886 3 10.861 3V3.75Z" fill="#B6B3BC"/>
</svg>
