<svg width="21" height="20" viewBox="0 0 21 20" fill="none" xmlns="http://www.w3.org/2000/svg">
<g opacity="0.4">
<path d="M17.673 15.417C18.2974 15.417 18.7941 15.0241 19.24 14.4746C20.1529 13.3498 18.6541 12.451 18.0824 12.0108C17.5013 11.5633 16.8525 11.3098 16.1947 11.2503M15.3613 9.58366C16.5119 9.58366 17.4447 8.65092 17.4447 7.50033C17.4447 6.34973 16.5119 5.41699 15.3613 5.41699" fill="white"/>
<path d="M17.673 15.417C18.2974 15.417 18.7941 15.0241 19.24 14.4746C20.1529 13.3498 18.6541 12.451 18.0824 12.0108C17.5013 11.5633 16.8525 11.3098 16.1947 11.2503M15.3613 9.58366C16.5119 9.58366 17.4447 8.65092 17.4447 7.50033C17.4447 6.34973 16.5119 5.41699 15.3613 5.41699" stroke="#393939" stroke-width="1.5" stroke-linecap="round"/>
</g>
<path opacity="0.4" d="M3.18822 15C2.5638 15 2.06715 14.6071 1.6212 14.0576C0.708328 12.9328 2.20715 12.034 2.77879 11.5938C3.3599 11.1463 4.00874 10.8928 4.66659 10.8333M5.08325 9.16667C3.93266 9.16667 2.99992 8.23392 2.99992 7.08333C2.99992 5.93274 3.93266 5 5.08325 5" stroke="#393939" stroke-width="1.5" stroke-linecap="round"/>
<path d="M7.23618 12.593C6.38469 13.1195 4.15216 14.1946 5.51193 15.5398C6.17616 16.197 6.91594 16.667 7.84603 16.667H13.1534C14.0834 16.667 14.8232 16.197 15.4874 15.5398C16.8472 14.1946 14.6147 13.1195 13.7632 12.593C11.7664 11.3583 9.23286 11.3583 7.23618 12.593Z" stroke="#393939" stroke-width="1.5" stroke-linecap="round" stroke-linejoin="round"/>
<path d="M13.4164 6.24967C13.4164 7.86051 12.1105 9.16634 10.4997 9.16634C8.88886 9.16634 7.58301 7.86051 7.58301 6.24967C7.58301 4.63884 8.88886 3.33301 10.4997 3.33301C12.1105 3.33301 13.4164 4.63884 13.4164 6.24967Z" stroke="#393939" stroke-width="1.5"/>
</svg>
