<svg width="20" height="21" viewBox="0 0 20 21" fill="none" xmlns="http://www.w3.org/2000/svg">
<path d="M7.63188 5.26019L7.29633 4.50521C7.07693 4.01157 6.96723 3.76473 6.80317 3.57584C6.59756 3.33912 6.32956 3.16495 6.02973 3.07321C5.79049 3 5.52038 3 4.98017 3C4.18992 3 3.7948 3 3.46311 3.15191C3.07239 3.33085 2.71953 3.7194 2.57894 4.1255C2.45959 4.47024 2.49378 4.82453 2.56215 5.53308C3.28992 13.0752 7.42485 17.2101 14.9669 17.9378C15.6755 18.0063 16.0298 18.0404 16.3745 17.9211C16.7806 17.7805 17.1691 17.4276 17.3481 17.0369C17.5 16.7052 17.5 16.3101 17.5 15.5198C17.5 14.9796 17.5 14.7095 17.4268 14.4703C17.335 14.1704 17.1609 13.9024 16.9241 13.6968C16.7353 13.5328 16.4885 13.4231 15.9948 13.2037L15.2398 12.8681C14.7052 12.6305 14.4379 12.5118 14.1663 12.4859C13.9063 12.4612 13.6442 12.4977 13.4009 12.5924C13.1466 12.6914 12.922 12.8787 12.4725 13.2532C12.0251 13.626 11.8015 13.8124 11.5281 13.9123C11.2858 14.0008 10.9655 14.0336 10.7103 13.9959C10.4224 13.9535 10.202 13.8358 9.76105 13.6001C8.38938 12.8671 7.63294 12.1107 6.89989 10.7389C6.66428 10.2981 6.54648 10.0776 6.50406 9.78975C6.46645 9.5345 6.49923 9.21417 6.58775 8.97192C6.6876 8.69857 6.87401 8.47488 7.24682 8.0275C7.62135 7.57807 7.80861 7.35335 7.90762 7.09909C8.00237 6.85578 8.03885 6.59367 8.01412 6.33373C7.98828 6.0621 7.86948 5.7948 7.63188 5.26019Z" stroke="#727272" stroke-width="1.5" stroke-linecap="round"/>
</svg>
