<svg width="15" height="14" viewBox="0 0 15 14" fill="none" xmlns="http://www.w3.org/2000/svg">
<g opacity="0.4">
<path d="M13.3333 6.41667C13.3333 7.06102 11.6358 7.58333 9.54167 7.58333C7.44756 7.58333 5.75 7.06102 5.75 6.41667M13.3333 6.41667C13.3333 5.77233 11.6358 5.25 9.54167 5.25C7.44756 5.25 5.75 5.77233 5.75 6.41667M13.3333 6.41667V11.55C13.3333 12.2587 11.6358 12.8333 9.54167 12.8333C7.44756 12.8333 5.75 12.2587 5.75 11.55V6.41667M13.3333 9.04167C13.3333 9.68602 11.6358 10.2083 9.54167 10.2083C7.44756 10.2083 5.75 9.68602 5.75 9.04167" fill="white"/>
<path d="M13.3333 6.41667C13.3333 7.06102 11.6358 7.58333 9.54167 7.58333C7.44756 7.58333 5.75 7.06102 5.75 6.41667M13.3333 6.41667C13.3333 5.77233 11.6358 5.25 9.54167 5.25C7.44756 5.25 5.75 5.77233 5.75 6.41667M13.3333 6.41667V11.55C13.3333 12.2587 11.6358 12.8333 9.54167 12.8333C7.44756 12.8333 5.75 12.2587 5.75 11.55V6.41667M13.3333 9.04167C13.3333 9.68602 11.6358 10.2083 9.54167 10.2083C7.44756 10.2083 5.75 9.68602 5.75 9.04167" stroke="#393939"/>
</g>
<path d="M9.25008 2.33366C9.25008 2.97799 7.55252 3.50033 5.45841 3.50033C3.36434 3.50033 1.66675 2.97799 1.66675 2.33366M9.25008 2.33366C9.25008 1.68933 7.55252 1.16699 5.45841 1.16699C3.36434 1.16699 1.66675 1.68933 1.66675 2.33366M9.25008 2.33366V3.50033M1.66675 2.33366V11.0837C1.88253 11.7688 2.89653 12.116 4.00008 12.2503M4.00008 6.41699C2.89653 6.28271 1.88253 5.93545 1.66675 5.25033M4.00008 9.33366C2.89653 9.19938 1.88253 8.85212 1.66675 8.16699" stroke="#393939" stroke-linecap="round"/>
</svg>
