<svg width="21" height="21" viewBox="0 0 21 21" fill="none" xmlns="http://www.w3.org/2000/svg">
<path d="M3.8335 6.33301C3.8335 5.1545 3.8335 4.56524 4.19961 4.19912C4.56573 3.83301 5.15499 3.83301 6.3335 3.83301C7.512 3.83301 8.10126 3.83301 8.46738 4.19912C8.8335 4.56524 8.8335 5.1545 8.8335 6.33301V14.6663C8.8335 15.8448 8.8335 16.4341 8.46738 16.8003C8.10126 17.1663 7.512 17.1663 6.3335 17.1663C5.15499 17.1663 4.56573 17.1663 4.19961 16.8003C3.8335 16.4341 3.8335 15.8448 3.8335 14.6663V6.33301Z" stroke="#D3120E" stroke-width="1.5"/>
<path d="M12.1668 6.33301C12.1668 5.1545 12.1668 4.56524 12.5329 4.19912C12.8991 3.83301 13.4883 3.83301 14.6668 3.83301C15.8453 3.83301 16.4346 3.83301 16.8007 4.19912C17.1668 4.56524 17.1668 5.1545 17.1668 6.33301V14.6663C17.1668 15.8448 17.1668 16.4341 16.8007 16.8003C16.4346 17.1663 15.8453 17.1663 14.6668 17.1663C13.4883 17.1663 12.8991 17.1663 12.5329 16.8003C12.1668 16.4341 12.1668 15.8448 12.1668 14.6663V6.33301Z" stroke="#D3120E" stroke-width="1.5"/>
</svg>
