<svg width="18" height="19" viewBox="0 0 18 19" fill="none" xmlns="http://www.w3.org/2000/svg">
<path d="M8.99772 0.541626C9.87214 0.541626 10.5609 1.20207 11.0006 2.09322L12.469 5.05426C12.5135 5.1459 12.6191 5.27494 12.7777 5.39299C12.9362 5.51092 13.0915 5.57597 13.1936 5.59313L15.8516 6.0384C16.8117 6.19973 17.6165 6.67037 17.8777 7.48988C18.1387 8.30871 17.7563 9.15963 17.0658 9.85129L17.0651 9.85204L15.0002 11.934C14.9184 12.0165 14.8267 12.172 14.7692 12.3745C14.7121 12.5756 14.7071 12.7589 14.733 12.8772L14.7333 12.8789L15.3241 15.4545C15.5691 16.5264 15.4879 17.5894 14.7319 18.1451C13.9732 18.7027 12.9366 18.4555 11.9947 17.8946L9.50314 16.4075C9.39847 16.345 9.21881 16.2943 9.00189 16.2943C8.78656 16.2943 8.60314 16.3443 8.49164 16.4091L8.49006 16.41L6.00337 17.8943C5.06268 18.4572 4.02726 18.7 3.26857 18.1418C2.51305 17.586 2.42776 16.525 2.67357 15.4539L3.26422 12.8789L3.26458 12.8772C3.29048 12.7589 3.28542 12.5756 3.22831 12.3745C3.17081 12.172 3.07913 12.0165 2.99729 11.934L0.930849 9.85046C0.244849 9.15879 -0.136351 8.30863 0.122599 7.491C0.382299 6.671 1.1855 6.19979 2.14625 6.03834L4.80207 5.59345L4.80292 5.59331C4.90028 5.57642 5.05322 5.51209 5.21137 5.39386C5.36982 5.27541 5.47563 5.14608 5.52024 5.05426L5.52249 5.04968L6.98899 2.09243L6.98957 2.09127C7.43347 1.20086 8.12431 0.541626 8.99772 0.541626Z" fill="#EAA800"/>
</svg>
