<svg width="61" height="61" viewBox="0 0 61 61" fill="none" xmlns="http://www.w3.org/2000/svg">
<g opacity="0.5">
<path d="M7.62517 23.5105C9.0289 23.5105 10.1668 24.6484 10.1668 26.0521V37.4896C10.1668 41.156 10.1722 43.6499 10.4233 45.5177C10.6646 47.3121 11.09 48.1433 11.6557 48.709C12.2214 49.2748 13.0526 49.7003 14.8472 49.9415C16.7148 50.1926 19.2089 50.198 22.8752 50.198H30.5002C31.9039 50.198 33.0418 51.3359 33.0418 52.7396C33.0418 54.1434 31.9039 55.2813 30.5002 55.2813H22.6958C19.2541 55.2813 16.416 55.2815 14.1698 54.9793C11.8116 54.6624 9.72888 53.9711 8.06127 52.3035C6.39365 50.6359 5.7024 48.5532 5.38535 46.1951C5.08335 43.9488 5.08342 41.1107 5.0835 37.6691V26.0521C5.0835 24.6484 6.22146 23.5105 7.62517 23.5105Z" fill="#727272"/>
<path d="M8.11172 10.0634C8.11172 6.2471 11.2242 3.17712 15.0344 3.17712H45.966C49.7762 3.17712 52.8887 6.2471 52.8887 10.0634C52.8887 11.4622 53.2562 12.8377 53.9564 14.0539L56.463 18.4087C57.1208 19.5504 57.6551 20.4775 57.7842 22.0279C57.8366 22.6579 57.8424 23.188 57.7621 23.6996C57.6853 24.1896 57.5387 24.5823 57.4306 24.8712L57.4149 24.9141C56.0604 28.5503 52.5423 31.1355 48.4222 31.1355C44.975 31.1355 41.9435 29.3232 40.2536 26.5971C37.9569 29.3754 34.426 31.1355 30.5002 31.1355C26.5743 31.1355 23.0433 29.3754 20.7467 26.5971C19.0569 29.3232 16.0255 31.1355 12.5782 31.1355C8.45802 31.1355 4.94002 28.5503 3.58557 24.9141L3.56958 24.8712C3.46166 24.5823 3.31503 24.1896 3.23817 23.6996C3.15793 23.188 3.16375 22.6579 3.21621 22.0279C3.34533 20.4774 3.87946 19.5504 4.53727 18.4087L7.04396 14.0539C7.74404 12.8377 8.11172 11.4622 8.11172 10.0634Z" fill="#727272"/>
<path fill-rule="evenodd" clip-rule="evenodd" d="M15.2502 43.2084C15.2502 41.8046 16.3881 40.6667 17.7918 40.6667H27.9585C29.3623 40.6667 30.5002 41.8046 30.5002 43.2084C30.5002 44.6121 29.3623 45.75 27.9585 45.75H17.7918C16.3881 45.75 15.2502 44.6121 15.2502 43.2084Z" fill="#727272"/>
<path fill-rule="evenodd" clip-rule="evenodd" d="M47.021 32.4063C41.0895 32.4063 36.2189 37.1338 36.2189 43.0414C36.2189 46.4071 37.9124 48.9213 39.6682 50.9333C40.294 51.6503 40.9815 52.3614 41.624 53.0258C41.8675 53.2774 42.1052 53.5232 42.3298 53.7593C43.1844 54.6576 43.9189 55.4839 44.4862 56.3272C44.961 57.033 45.8096 57.823 47.0357 57.823C48.2827 57.823 49.1288 57.0096 49.5888 56.2766C50.1277 55.4178 50.8401 54.5933 51.6801 53.708C51.9546 53.4188 52.2568 53.1092 52.5702 52.7882C53.154 52.1904 53.7765 51.5527 54.3288 50.9345C56.0983 48.9548 57.8231 46.4752 57.8231 43.0414C57.8231 37.1338 52.9525 32.4063 47.021 32.4063ZM47.004 47.0209C44.9079 47.0209 43.2085 45.3139 43.2085 43.2084C43.2085 41.1029 44.9079 39.3959 47.004 39.3959H47.038C49.1341 39.3959 50.8335 41.1029 50.8335 43.2084C50.8335 45.3139 49.1341 47.0209 47.038 47.0209H47.004Z" fill="#727272"/>
</g>
</svg>
