<svg width="21" height="20" viewBox="0 0 21 20" fill="none" xmlns="http://www.w3.org/2000/svg">
<path d="M14.5412 3.43105C14.8998 3.63845 15.3586 3.51593 15.566 3.15738C15.7734 2.79883 15.6508 2.34004 15.2923 2.13263L14.9167 2.78184L14.5412 3.43105ZM19.6518 8.18454C19.5694 7.77859 19.1736 7.51628 18.7676 7.59863C18.3617 7.68099 18.0994 8.07684 18.1817 8.48278L18.9167 8.33366L19.6518 8.18454ZM7.41675 9.66699C7.00253 9.66699 6.66675 10.0028 6.66675 10.417C6.66675 10.8312 7.00253 11.167 7.41675 11.167V10.417V9.66699ZM10.3334 13.3337L9.68223 13.7058C9.81404 13.9364 10.058 14.0801 10.3237 14.0836C10.5893 14.087 10.837 13.9497 10.9747 13.7226L10.3334 13.3337ZM19.3443 4.87015C19.7327 4.72607 19.9307 4.29444 19.7866 3.9061C19.6425 3.51775 19.2109 3.31974 18.8225 3.46383L19.0834 4.16699L19.3443 4.87015ZM14.9167 2.78184L15.2923 2.13263C13.9555 1.35934 12.4033 0.916992 10.7501 0.916992V1.66699V2.41699C12.1326 2.41699 13.4265 2.78626 14.5412 3.43105L14.9167 2.78184ZM10.7501 1.66699V0.916992C5.73349 0.916992 1.66675 4.98374 1.66675 10.0003H2.41675H3.16675C3.16675 5.81216 6.56192 2.41699 10.7501 2.41699V1.66699ZM2.41675 10.0003H1.66675C1.66675 15.0169 5.73349 19.0837 10.7501 19.0837V18.3337V17.5837C6.56192 17.5837 3.16675 14.1884 3.16675 10.0003H2.41675ZM10.7501 18.3337V19.0837C15.7666 19.0837 19.8334 15.0169 19.8334 10.0003H19.0834H18.3334C18.3334 14.1884 14.9382 17.5837 10.7501 17.5837V18.3337ZM19.0834 10.0003H19.8334C19.8334 9.37916 19.7709 8.77179 19.6518 8.18454L18.9167 8.33366L18.1817 8.48278C18.2811 8.97253 18.3334 9.47999 18.3334 10.0003H19.0834ZM7.41675 10.417C7.41675 11.167 7.4159 11.167 7.41505 11.167C7.41478 11.167 7.41393 11.167 7.41338 11.167C7.41228 11.167 7.41119 11.167 7.41012 11.167C7.40799 11.1669 7.40592 11.1669 7.40392 11.1669C7.39992 11.1668 7.39621 11.1667 7.39277 11.1666C7.3859 11.1663 7.38015 11.166 7.3755 11.1656C7.36618 11.1649 7.36136 11.1642 7.36088 11.1642C7.35979 11.164 7.3768 11.1665 7.4107 11.1773C7.47764 11.1986 7.6181 11.2547 7.81998 11.396C8.22594 11.6802 8.88697 12.3141 9.68223 13.7058L10.3334 13.3337L10.9846 12.9616C10.1132 11.4366 9.31589 10.6122 8.68018 10.1672C8.36123 9.94389 8.08503 9.81772 7.86551 9.74787C7.75617 9.71308 7.66251 9.69279 7.58655 9.68122C7.54863 9.67546 7.51533 9.67189 7.48689 9.66978C7.47268 9.66872 7.4597 9.66802 7.448 9.66759C7.44215 9.66737 7.43661 9.66722 7.4314 9.66713C7.4288 9.66708 7.42627 9.66705 7.42383 9.66703C7.42261 9.66701 7.42141 9.66701 7.42023 9.667C7.41964 9.667 7.41877 9.667 7.41847 9.667C7.41761 9.66699 7.41675 9.66699 7.41675 10.417ZM10.3334 13.3337C10.9747 13.7226 10.9747 13.7226 10.9746 13.7227C10.9747 13.7226 10.9747 13.7226 10.9747 13.7226C10.9748 13.7225 10.9749 13.7223 10.9751 13.7219C10.9755 13.7213 10.9762 13.7201 10.9771 13.7186C10.9791 13.7154 10.9821 13.7104 10.9862 13.7037C10.9944 13.6903 11.007 13.6699 11.0238 13.6428C11.0573 13.5887 11.1076 13.5083 11.1734 13.4049C11.305 13.1979 11.4984 12.8992 11.7435 12.5353C12.2344 11.8068 12.9303 10.8211 13.751 9.79044C14.5732 8.7579 15.5116 7.69183 16.4865 6.79611C17.4698 5.89268 18.4472 5.20299 19.3443 4.87015L19.0834 4.16699L18.8225 3.46383C17.6608 3.89488 16.515 4.73297 15.4717 5.69152C14.42 6.65778 13.4282 7.78788 12.5776 8.85604C11.7255 9.92605 11.0059 10.9456 10.4996 11.6971C10.2461 12.0733 10.0454 12.3832 9.90761 12.6C9.83867 12.7084 9.78541 12.7936 9.74909 12.8522C9.73092 12.8815 9.71699 12.9041 9.70744 12.9197C9.70267 12.9275 9.69899 12.9335 9.69643 12.9377C9.69515 12.9398 9.69415 12.9414 9.69343 12.9426C9.69307 12.9432 9.69278 12.9437 9.69256 12.944C9.69245 12.9442 9.69234 12.9444 9.69229 12.9445C9.69219 12.9446 9.69212 12.9448 10.3334 13.3337Z" fill="#008632"/>
</svg>
