<svg width="20" height="20" viewBox="0 0 20 20" fill="none" xmlns="http://www.w3.org/2000/svg">
<path fill-rule="evenodd" clip-rule="evenodd" d="M9.99935 1.04163C9.53168 1.04163 9.15068 1.23838 8.80402 1.50294C8.47927 1.7507 8.12107 2.10892 7.70201 2.52802L7.67253 2.55749C7.24365 2.98638 6.86976 3.15518 6.29275 3.15518C6.22043 3.15518 6.12917 3.15261 6.02612 3.14971C5.76192 3.14228 5.42016 3.13266 5.12114 3.15852C4.68375 3.19634 4.13712 3.31603 3.72222 3.73441C3.31052 4.14958 3.19374 4.69398 3.15704 5.12862C3.13203 5.42492 3.14164 5.76413 3.14907 6.02644C3.15199 6.12978 3.15458 6.2212 3.15458 6.29334C3.15458 6.87036 2.98577 7.24425 2.55687 7.67316L2.52741 7.70262C2.10831 8.12168 1.75009 8.47988 1.50233 8.80454C1.23778 9.15129 1.04102 9.53229 1.04102 9.99996C1.04102 10.4675 1.23779 10.8485 1.50233 11.1953C1.75014 11.5201 2.10844 11.8784 2.52764 12.2975L2.5569 12.3268C2.83495 12.6048 2.96611 12.7851 3.04045 12.9553C3.11284 13.121 3.15458 13.3309 3.15458 13.7065C3.15458 13.7789 3.15202 13.8701 3.14912 13.9732C3.14168 14.2374 3.13207 14.5791 3.15792 14.8782C3.19576 15.3155 3.31546 15.8622 3.73384 16.2771C4.14902 16.6888 4.69341 16.8055 5.12804 16.8422C5.42432 16.8673 5.76354 16.8576 6.02584 16.8502C6.12919 16.8473 6.2206 16.8447 6.29273 16.8447C6.66042 16.8447 6.86707 16.8817 7.02972 16.9488C7.19224 17.0159 7.36607 17.136 7.62788 17.3978C7.68376 17.4536 7.75737 17.5325 7.84229 17.6235C8.03392 17.829 8.28327 18.0962 8.51602 18.2996C8.8691 18.6083 9.37568 18.9583 9.99935 18.9583C10.6231 18.9583 11.1296 18.6083 11.4828 18.2996C11.7154 18.0962 11.9646 17.8292 12.1562 17.6238C12.2412 17.5326 12.3149 17.4537 12.3708 17.3977C12.6326 17.136 12.8064 17.0159 12.9689 16.9488C13.1316 16.8817 13.3383 16.8447 13.7059 16.8447C13.7781 16.8447 13.8695 16.8473 13.9728 16.8502C14.2352 16.8576 14.5743 16.8673 14.8707 16.8422C15.3053 16.8055 15.8497 16.6888 16.2648 16.2771C16.6833 15.8622 16.8029 15.3155 16.8408 14.8782C16.8666 14.5791 16.857 14.2374 16.8496 13.9732C16.8467 13.8702 16.8441 13.7788 16.8441 13.7065C16.8441 13.3309 16.8858 13.121 16.9583 12.9553C17.0326 12.7851 17.1638 12.6048 17.4418 12.3268L17.4711 12.2975C17.8903 11.8784 18.2486 11.5201 18.4963 11.1953C18.7609 10.8485 18.9577 10.4675 18.9577 9.99996C18.9577 9.53229 18.7609 9.15129 18.4963 8.80454C18.2486 8.47988 17.8904 8.12169 17.4713 7.70264L17.4418 7.67316C17.1638 7.39509 17.0326 7.21478 16.9583 7.04458C16.8858 6.87886 16.8441 6.66903 16.8441 6.29334C16.8441 6.22108 16.8467 6.1299 16.8496 6.02693C16.857 5.76273 16.8666 5.42076 16.8408 5.12175C16.8029 4.68437 16.6833 4.13773 16.2649 3.72285C15.8498 3.31112 15.3053 3.19433 14.8707 3.15763C14.5743 3.13262 14.2352 3.14223 13.9728 3.14966C13.8695 3.15258 13.7781 3.15518 13.7059 3.15518C13.1288 3.15518 12.7549 2.9863 12.3262 2.55749L12.2967 2.52803C11.8776 2.10892 11.5194 1.7507 11.1947 1.50294C10.848 1.23838 10.467 1.04163 9.99935 1.04163ZM12.8843 8.65588C13.2926 8.44329 13.4511 7.94004 13.2385 7.53185C13.0259 7.12366 12.5227 6.9651 12.1145 7.1777C10.9245 7.79748 9.95368 8.98396 9.31218 9.91946C9.13143 10.1831 8.97068 10.436 8.83252 10.6644C8.73818 10.5845 8.64718 10.5128 8.56318 10.4495C8.38377 10.3145 8.22243 10.208 8.1046 10.1345L7.89854 10.0126L7.8972 10.0119C7.49277 9.79221 6.98683 9.94196 6.76717 10.3465C6.54754 10.7508 6.69747 11.2567 7.10169 11.4765C7.22148 11.5522 7.48098 11.7192 7.56067 11.781C7.83866 11.9903 8.12192 12.253 8.29375 12.5267C8.45518 12.7837 8.7436 12.9326 9.0466 12.9155C9.34952 12.8983 9.61935 12.7175 9.75068 12.444C9.79335 12.3582 9.90152 12.146 9.99343 11.9837C10.156 11.6913 10.3923 11.2913 10.6867 10.862C11.2952 9.97463 12.0743 9.07779 12.8843 8.65588Z" fill="#1C58F1"/>
</svg>
