<svg width="19" height="19" viewBox="0 0 19 19" fill="none" xmlns="http://www.w3.org/2000/svg">
<path d="M3.93484 7.56878L4.58778 7.93779L4.58779 7.93779L3.93484 7.56878ZM8.332 1.77201L8.56827 2.48383L8.56829 2.48382L8.332 1.77201ZM10.6682 1.77201L10.4319 2.48382L10.4319 2.48383L10.6682 1.77201ZM15.0653 7.56878L14.4124 7.93779L14.4124 7.93779L15.0653 7.56878ZM17.7808 14.3574L18.515 14.5102L18.515 14.5102L17.7808 14.3574ZM16.6126 16.4244L17.1203 16.9764L17.1204 16.9764L16.6126 16.4244ZM2.38755 16.4244L1.87977 16.9764L1.8798 16.9764L2.38755 16.4244ZM1.21943 14.3574L1.95371 14.2047L1.95371 14.2047L1.21943 14.3574ZM8.95192 13.6664C8.95192 14.0806 9.2877 14.4164 9.70192 14.4164C10.1161 14.4164 10.4519 14.0806 10.4519 13.6664H9.70192H8.95192ZM9.57983 9.6217L9.0495 10.152L9.57983 9.6217ZM8.86858 8.7497C8.45437 8.7497 8.11858 9.08548 8.11858 9.4997C8.11858 9.91391 8.45437 10.2497 8.86858 10.2497V9.4997V8.7497ZM9.49342 6.24967C9.0792 6.24967 8.74342 6.58546 8.74342 6.99967C8.74342 7.41389 9.0792 7.74967 9.49342 7.74967V6.99967V6.24967ZM9.50092 7.74967C9.91513 7.74967 10.2509 7.41389 10.2509 6.99967C10.2509 6.58546 9.91513 6.24967 9.50092 6.24967V6.99967V7.74967ZM3.93484 7.56878L4.58779 7.93779C5.60198 6.14321 6.33389 4.85013 6.98081 3.94297C7.63043 3.03202 8.11027 2.63585 8.56827 2.48383L8.332 1.77201L8.09573 1.0602C7.17366 1.36626 6.46063 2.08892 5.75954 3.07205C5.05574 4.05897 4.27911 5.43524 3.2819 7.19978L3.93484 7.56878ZM8.332 1.77201L8.56829 2.48382C9.17405 2.28274 9.82612 2.28274 10.4319 2.48382L10.6682 1.77201L10.9045 1.06021C9.99188 0.757275 9.00829 0.757275 8.09571 1.06021L8.332 1.77201ZM10.6682 1.77201L10.4319 2.48383C10.8899 2.63585 11.3697 3.03202 12.0194 3.94297C12.6663 4.85013 13.3982 6.14321 14.4124 7.93779L15.0653 7.56878L15.7183 7.19977C14.7211 5.43524 13.9444 4.05897 13.2406 3.07205C12.5395 2.08892 11.8265 1.36626 10.9044 1.0602L10.6682 1.77201ZM15.0653 7.56878L14.4124 7.93779C15.4265 9.7322 16.1568 11.0265 16.6025 12.0528C17.0492 13.0812 17.1492 13.7111 17.0465 14.2047L17.7808 14.3574L18.515 14.5102C18.714 13.5538 18.462 12.5689 17.9784 11.4553C17.4938 10.3395 16.7156 8.96444 15.7183 7.19977L15.0653 7.56878ZM17.7808 14.3574L17.0465 14.2047C16.912 14.8507 16.5814 15.4341 16.1048 15.8725L16.6126 16.4244L17.1204 16.9764C17.8303 16.3233 18.3175 15.4597 18.515 14.5102L17.7808 14.3574ZM16.6126 16.4244L16.1048 15.8725C15.7452 16.2032 15.1714 16.4281 14.0795 16.5468C12.9891 16.6653 11.5292 16.6664 9.50008 16.6664V17.4164V18.1664C11.4938 18.1664 13.0509 18.1674 14.2416 18.038C15.4306 17.9087 16.4016 17.6376 17.1203 16.9764L16.6126 16.4244ZM9.50008 17.4164V16.6664C7.47096 16.6664 6.01103 16.6653 4.92071 16.5468C3.82878 16.4281 3.2549 16.2032 2.8953 15.8725L2.38755 16.4244L1.8798 16.9764C2.59854 17.6376 3.56953 17.9087 4.75859 18.038C5.94925 18.1674 7.50641 18.1664 9.50008 18.1664V17.4164ZM2.38755 16.4244L2.89533 15.8725C2.41877 15.4341 2.08812 14.8507 1.95371 14.2047L1.21943 14.3574L0.485158 14.5102C0.682697 15.4597 1.16987 16.3233 1.87977 16.9764L2.38755 16.4244ZM1.21943 14.3574L1.95371 14.2047C1.851 13.711 1.95101 13.0812 2.39766 12.0528C2.84337 11.0265 3.57368 9.7322 4.58778 7.93779L3.93484 7.56878L3.2819 7.19977C2.28461 8.96444 1.50637 10.3395 1.0218 11.4553C0.538175 12.5689 0.286173 13.5538 0.485159 14.5102L1.21943 14.3574ZM9.70192 13.6664H10.4519V10.333H9.70192H8.95192V13.6664H9.70192ZM9.70192 10.333H10.4519C10.4519 10.1578 10.4535 9.95094 10.43 9.77586C10.4035 9.57917 10.3337 9.31494 10.1102 9.09137L9.57983 9.6217L9.0495 10.152C9.00459 10.1071 8.97437 10.0571 8.95684 10.0145C8.94177 9.9779 8.94105 9.95868 8.94335 9.9758C8.94572 9.99341 8.94862 10.0277 8.95025 10.0923C8.95187 10.1564 8.95192 10.232 8.95192 10.333H9.70192ZM9.57983 9.6217L10.1102 9.09137C9.88655 8.86776 9.62226 8.79805 9.42568 8.77163C9.25065 8.74811 9.0438 8.7497 8.86858 8.7497V9.4997V10.2497C8.96958 10.2497 9.04521 10.2497 9.10937 10.2514C9.17391 10.253 9.20824 10.2559 9.22586 10.2583C9.243 10.2606 9.22379 10.2598 9.18716 10.2448C9.14455 10.2273 9.09449 10.197 9.0495 10.152L9.57983 9.6217ZM9.49342 6.99967V7.74967H9.50092V6.99967V6.24967H9.49342V6.99967Z" fill="#1C58F1"/>
</svg>
